<svg width="588" height="662" viewBox="0 0 588 662" fill="none" xmlns="http://www.w3.org/2000/svg">
<circle cx="278.197" cy="304.559" r="259.523" stroke="url(#paint0_linear_1880_2241)" stroke-width="2.5653" stroke-linecap="round" stroke-linejoin="round" stroke-dasharray="8.55 8.55"/>
<circle cx="278.196" cy="304.56" r="170.593" stroke="#E9E9E9" stroke-width="2.5653" stroke-linecap="round" stroke-linejoin="round" stroke-dasharray="8.55 8.55"/>
<g filter="url(#filter0_d_1880_2241)">
<path d="M39.1953 315.247C39.1953 298.718 52.5948 285.318 69.1239 285.318H481.283C483.172 285.318 484.703 286.85 484.703 288.739V563.226C484.703 579.755 471.304 593.155 454.775 593.155H42.6157C40.7267 593.155 39.1953 591.623 39.1953 589.734V315.247Z" fill="white"/>
</g>
<path d="M72.2583 550.788V562.979H70.0454V553.368L67.1144 554.337V552.55L72.0078 550.788H72.2583ZM84.4001 555.856V557.902C84.4001 558.838 84.3055 559.636 84.1162 560.299C83.9269 560.961 83.6541 561.504 83.2978 561.927C82.9415 562.345 82.5157 562.654 82.0202 562.854C81.5247 563.049 80.9736 563.147 80.3668 563.147C79.8824 563.147 79.4315 563.085 79.014 562.963C78.5965 562.835 78.2207 562.64 77.8866 562.378C77.5582 562.111 77.2743 561.771 77.0349 561.359C76.8011 560.948 76.6201 560.455 76.4921 559.881C76.3696 559.308 76.3084 558.648 76.3084 557.902V555.856C76.3084 554.921 76.403 554.125 76.5923 553.468C76.7872 552.811 77.0627 552.274 77.419 551.856C77.7753 551.439 78.2012 551.136 78.6967 550.946C79.1921 550.751 79.7433 550.654 80.3501 550.654C80.84 550.654 81.2909 550.715 81.7029 550.838C82.1204 550.96 82.4934 551.152 82.8219 551.414C83.1559 551.67 83.4398 552.004 83.6736 552.416C83.9074 552.822 84.0856 553.312 84.2081 553.886C84.3361 554.454 84.4001 555.11 84.4001 555.856ZM82.1956 558.203V555.547C82.1956 555.08 82.1677 554.673 82.1121 554.328C82.0619 553.978 81.9868 553.68 81.8866 553.435C81.7864 553.19 81.6611 552.992 81.5108 552.842C81.3605 552.686 81.1879 552.572 80.9931 552.499C80.7982 552.427 80.5839 552.391 80.3501 552.391C80.0606 552.391 79.8017 552.449 79.5735 552.566C79.3452 552.678 79.1532 552.856 78.9973 553.101C78.8414 553.346 78.7217 553.671 78.6382 554.078C78.5603 554.479 78.5213 554.968 78.5213 555.547V558.203C78.5213 558.671 78.5463 559.08 78.5965 559.43C78.6521 559.781 78.7301 560.082 78.8303 560.332C78.936 560.583 79.0613 560.789 79.206 560.95C79.3564 561.106 79.5289 561.223 79.7238 561.301C79.9186 561.373 80.133 561.41 80.3668 561.41C80.6618 561.41 80.9207 561.351 81.1434 561.234C81.3716 561.117 81.5637 560.934 81.7196 560.683C81.8755 560.427 81.9924 560.096 82.0703 559.689C82.1538 559.277 82.1956 558.782 82.1956 558.203Z" fill="#A7A7A7"/>
<path d="M135.527 561.243V562.979H127.293V561.493L131.243 557.226C131.655 556.758 131.98 556.352 132.22 556.007C132.459 555.662 132.629 555.35 132.729 555.071C132.835 554.788 132.888 554.518 132.888 554.261C132.888 553.888 132.821 553.563 132.687 553.284C132.554 553.001 132.359 552.781 132.103 552.625C131.852 552.469 131.543 552.391 131.176 552.391C130.769 552.391 130.422 552.486 130.132 552.675C129.848 552.859 129.631 553.115 129.481 553.443C129.336 553.772 129.264 554.147 129.264 554.57H127.051C127.051 553.852 127.218 553.198 127.552 552.608C127.886 552.012 128.364 551.536 128.988 551.18C129.612 550.824 130.352 550.646 131.209 550.646C132.044 550.646 132.751 550.785 133.33 551.063C133.909 551.336 134.349 551.726 134.65 552.232C134.95 552.739 135.101 553.343 135.101 554.044C135.101 554.434 135.037 554.818 134.909 555.197C134.781 555.575 134.6 555.951 134.366 556.324C134.138 556.691 133.865 557.064 133.547 557.443C133.23 557.822 132.877 558.209 132.487 558.604L130.115 561.243H135.527ZM145.113 555.856V557.902C145.113 558.838 145.018 559.636 144.829 560.299C144.64 560.961 144.367 561.504 144.011 561.927C143.654 562.345 143.229 562.654 142.733 562.854C142.238 563.049 141.686 563.147 141.08 563.147C140.595 563.147 140.144 563.085 139.727 562.963C139.309 562.835 138.934 562.64 138.6 562.378C138.271 562.111 137.987 561.771 137.748 561.359C137.514 560.948 137.333 560.455 137.205 559.881C137.083 559.308 137.021 558.648 137.021 557.902V555.856C137.021 554.921 137.116 554.125 137.305 553.468C137.5 552.811 137.776 552.274 138.132 551.856C138.488 551.439 138.914 551.136 139.41 550.946C139.905 550.751 140.456 550.654 141.063 550.654C141.553 550.654 142.004 550.715 142.416 550.838C142.833 550.96 143.206 551.152 143.535 551.414C143.869 551.67 144.153 552.004 144.387 552.416C144.62 552.822 144.798 553.312 144.921 553.886C145.049 554.454 145.113 555.11 145.113 555.856ZM142.908 558.203V555.547C142.908 555.08 142.881 554.673 142.825 554.328C142.775 553.978 142.7 553.68 142.599 553.435C142.499 553.19 142.374 552.992 142.224 552.842C142.073 552.686 141.901 552.572 141.706 552.499C141.511 552.427 141.297 552.391 141.063 552.391C140.773 552.391 140.515 552.449 140.286 552.566C140.058 552.678 139.866 552.856 139.71 553.101C139.554 553.346 139.435 553.671 139.351 554.078C139.273 554.479 139.234 554.968 139.234 555.547V558.203C139.234 558.671 139.259 559.08 139.309 559.43C139.365 559.781 139.443 560.082 139.543 560.332C139.649 560.583 139.774 560.789 139.919 560.95C140.069 561.106 140.242 561.223 140.437 561.301C140.632 561.373 140.846 561.41 141.08 561.41C141.375 561.41 141.634 561.351 141.856 561.234C142.085 561.117 142.277 560.934 142.432 560.683C142.588 560.427 142.705 560.096 142.783 559.689C142.867 559.277 142.908 558.782 142.908 558.203Z" fill="#A7A7A7"/>
<path d="M190.417 555.923H191.661C192.101 555.923 192.463 555.848 192.747 555.698C193.036 555.542 193.251 555.33 193.39 555.063C193.535 554.79 193.607 554.476 193.607 554.12C193.607 553.769 193.543 553.465 193.415 553.209C193.287 552.948 193.092 552.747 192.83 552.608C192.574 552.463 192.246 552.391 191.845 552.391C191.522 552.391 191.224 552.455 190.952 552.583C190.684 552.711 190.47 552.895 190.309 553.134C190.153 553.368 190.075 553.649 190.075 553.978H187.862C187.862 553.321 188.034 552.744 188.38 552.249C188.73 551.748 189.203 551.355 189.799 551.072C190.395 550.788 191.06 550.646 191.795 550.646C192.597 550.646 193.298 550.779 193.899 551.046C194.506 551.308 194.977 551.695 195.311 552.207C195.65 552.719 195.82 553.354 195.82 554.111C195.82 554.473 195.734 554.835 195.561 555.197C195.394 555.553 195.146 555.876 194.818 556.165C194.495 556.449 194.097 556.68 193.624 556.859C193.156 557.031 192.619 557.117 192.012 557.117H190.417V555.923ZM190.417 557.627V556.449H192.012C192.697 556.449 193.29 556.53 193.791 556.691C194.297 556.847 194.715 557.07 195.043 557.36C195.372 557.643 195.614 557.975 195.77 558.353C195.931 558.732 196.012 559.138 196.012 559.572C196.012 560.14 195.906 560.647 195.695 561.092C195.483 561.532 195.185 561.905 194.801 562.211C194.423 562.517 193.977 562.751 193.465 562.913C192.953 563.069 192.399 563.147 191.803 563.147C191.286 563.147 190.782 563.077 190.292 562.938C189.807 562.793 189.37 562.579 188.981 562.295C188.591 562.005 188.282 561.643 188.054 561.209C187.826 560.769 187.711 560.26 187.711 559.681H189.924C189.924 560.015 190.005 560.313 190.167 560.575C190.334 560.836 190.562 561.042 190.851 561.192C191.146 561.337 191.478 561.41 191.845 561.41C192.251 561.41 192.599 561.337 192.889 561.192C193.184 561.042 193.409 560.831 193.565 560.558C193.721 560.279 193.799 559.948 193.799 559.564C193.799 559.108 193.713 558.737 193.54 558.453C193.368 558.17 193.12 557.961 192.797 557.827C192.48 557.694 192.101 557.627 191.661 557.627H190.417ZM205.824 555.856V557.902C205.824 558.838 205.729 559.636 205.54 560.299C205.351 560.961 205.078 561.504 204.722 561.927C204.365 562.345 203.939 562.654 203.444 562.854C202.949 563.049 202.397 563.147 201.791 563.147C201.306 563.147 200.855 563.085 200.438 562.963C200.02 562.835 199.645 562.64 199.31 562.378C198.982 562.111 198.698 561.771 198.459 561.359C198.225 560.948 198.044 560.455 197.916 559.881C197.793 559.308 197.732 558.648 197.732 557.902V555.856C197.732 554.921 197.827 554.125 198.016 553.468C198.211 552.811 198.487 552.274 198.843 551.856C199.199 551.439 199.625 551.136 200.12 550.946C200.616 550.751 201.167 550.654 201.774 550.654C202.264 550.654 202.715 550.715 203.127 550.838C203.544 550.96 203.917 551.152 204.246 551.414C204.58 551.67 204.864 552.004 205.097 552.416C205.331 552.822 205.509 553.312 205.632 553.886C205.76 554.454 205.824 555.11 205.824 555.856ZM203.619 558.203V555.547C203.619 555.08 203.592 554.673 203.536 554.328C203.486 553.978 203.411 553.68 203.31 553.435C203.21 553.19 203.085 552.992 202.935 552.842C202.784 552.686 202.612 552.572 202.417 552.499C202.222 552.427 202.008 552.391 201.774 552.391C201.484 552.391 201.226 552.449 200.997 552.566C200.769 552.678 200.577 552.856 200.421 553.101C200.265 553.346 200.146 553.671 200.062 554.078C199.984 554.479 199.945 554.968 199.945 555.547V558.203C199.945 558.671 199.97 559.08 200.02 559.43C200.076 559.781 200.154 560.082 200.254 560.332C200.36 560.583 200.485 560.789 200.63 560.95C200.78 561.106 200.953 561.223 201.148 561.301C201.342 561.373 201.557 561.41 201.791 561.41C202.086 561.41 202.345 561.351 202.567 561.234C202.795 561.117 202.988 560.934 203.143 560.683C203.299 560.427 203.416 560.096 203.494 559.689C203.578 559.277 203.619 558.782 203.619 558.203Z" fill="#A7A7A7"/>
<path d="M257.159 558.545V560.282H248.399L248.307 558.946L253.46 550.821H255.222L253.318 554.053L250.554 558.545H257.159ZM255.714 550.821V562.979H253.502V550.821H255.714ZM266.537 555.856V557.902C266.537 558.838 266.442 559.636 266.253 560.299C266.064 560.961 265.791 561.504 265.435 561.927C265.078 562.345 264.652 562.654 264.157 562.854C263.661 563.049 263.11 563.147 262.503 563.147C262.019 563.147 261.568 563.085 261.151 562.963C260.733 562.835 260.357 562.64 260.023 562.378C259.695 562.111 259.411 561.771 259.172 561.359C258.938 560.948 258.757 560.455 258.629 559.881C258.506 559.308 258.445 558.648 258.445 557.902V555.856C258.445 554.921 258.54 554.125 258.729 553.468C258.924 552.811 259.199 552.274 259.556 551.856C259.912 551.439 260.338 551.136 260.833 550.946C261.329 550.751 261.88 550.654 262.487 550.654C262.977 550.654 263.428 550.715 263.84 550.838C264.257 550.96 264.63 551.152 264.959 551.414C265.293 551.67 265.577 552.004 265.81 552.416C266.044 552.822 266.222 553.312 266.345 553.886C266.473 554.454 266.537 555.11 266.537 555.856ZM264.332 558.203V555.547C264.332 555.08 264.304 554.673 264.249 554.328C264.199 553.978 264.124 553.68 264.023 553.435C263.923 553.19 263.798 552.992 263.648 552.842C263.497 552.686 263.325 552.572 263.13 552.499C262.935 552.427 262.721 552.391 262.487 552.391C262.197 552.391 261.938 552.449 261.71 552.566C261.482 552.678 261.29 552.856 261.134 553.101C260.978 553.346 260.858 553.671 260.775 554.078C260.697 554.479 260.658 554.968 260.658 555.547V558.203C260.658 558.671 260.683 559.08 260.733 559.43C260.789 559.781 260.867 560.082 260.967 560.332C261.073 560.583 261.198 560.789 261.343 560.95C261.493 561.106 261.666 561.223 261.861 561.301C262.055 561.373 262.27 561.41 262.503 561.41C262.799 561.41 263.057 561.351 263.28 561.234C263.508 561.117 263.7 560.934 263.856 560.683C264.012 560.427 264.129 560.096 264.207 559.689C264.291 559.277 264.332 558.782 264.332 558.203Z" fill="#A7A7A7"/>
<path d="M311.617 557.385L309.855 556.959L310.532 550.821H317.221V552.65H312.361L312.043 555.489C312.216 555.383 312.466 555.277 312.795 555.172C313.129 555.06 313.505 555.005 313.922 555.005C314.501 555.005 315.019 555.099 315.475 555.289C315.932 555.472 316.319 555.74 316.636 556.09C316.959 556.441 317.201 556.87 317.363 557.376C317.53 557.877 317.613 558.445 317.613 559.08C317.613 559.636 317.53 560.16 317.363 560.65C317.201 561.134 316.953 561.565 316.619 561.944C316.285 562.317 315.865 562.612 315.358 562.829C314.852 563.041 314.256 563.147 313.571 563.147C313.054 563.147 312.555 563.071 312.077 562.921C311.603 562.765 311.178 562.54 310.799 562.245C310.42 561.944 310.117 561.577 309.889 561.142C309.666 560.708 309.544 560.21 309.521 559.648H311.701C311.74 560.021 311.84 560.338 312.002 560.6C312.163 560.861 312.375 561.062 312.636 561.201C312.903 561.34 313.212 561.41 313.563 561.41C313.88 561.41 314.153 561.351 314.381 561.234C314.615 561.112 314.807 560.942 314.958 560.725C315.108 560.508 315.219 560.252 315.292 559.957C315.364 559.662 315.4 559.339 315.4 558.988C315.4 558.648 315.358 558.339 315.275 558.061C315.191 557.777 315.063 557.532 314.891 557.326C314.718 557.12 314.501 556.961 314.239 556.85C313.983 556.739 313.683 556.683 313.338 556.683C312.876 556.683 312.519 556.753 312.269 556.892C312.024 557.031 311.807 557.195 311.617 557.385ZM327.25 555.856V557.902C327.25 558.838 327.155 559.636 326.966 560.299C326.777 560.961 326.504 561.504 326.147 561.927C325.791 562.345 325.365 562.654 324.87 562.854C324.374 563.049 323.823 563.147 323.216 563.147C322.732 563.147 322.281 563.085 321.864 562.963C321.446 562.835 321.07 562.64 320.736 562.378C320.408 562.111 320.124 561.771 319.884 561.359C319.651 560.948 319.47 560.455 319.342 559.881C319.219 559.308 319.158 558.648 319.158 557.902V555.856C319.158 554.921 319.253 554.125 319.442 553.468C319.637 552.811 319.912 552.274 320.269 551.856C320.625 551.439 321.051 551.136 321.546 550.946C322.042 550.751 322.593 550.654 323.2 550.654C323.69 550.654 324.141 550.715 324.552 550.838C324.97 550.96 325.343 551.152 325.671 551.414C326.005 551.67 326.289 552.004 326.523 552.416C326.757 552.822 326.935 553.312 327.058 553.886C327.186 554.454 327.25 555.11 327.25 555.856ZM325.045 558.203V555.547C325.045 555.08 325.017 554.673 324.962 554.328C324.912 553.978 324.836 553.68 324.736 553.435C324.636 553.19 324.511 552.992 324.36 552.842C324.21 552.686 324.038 552.572 323.843 552.499C323.648 552.427 323.434 552.391 323.2 552.391C322.91 552.391 322.651 552.449 322.423 552.566C322.195 552.678 322.003 552.856 321.847 553.101C321.691 553.346 321.571 553.671 321.488 554.078C321.41 554.479 321.371 554.968 321.371 555.547V558.203C321.371 558.671 321.396 559.08 321.446 559.43C321.502 559.781 321.58 560.082 321.68 560.332C321.786 560.583 321.911 560.789 322.056 560.95C322.206 561.106 322.379 561.223 322.573 561.301C322.768 561.373 322.983 561.41 323.216 561.41C323.511 561.41 323.77 561.351 323.993 561.234C324.221 561.117 324.413 560.934 324.569 560.683C324.725 560.427 324.842 560.096 324.92 559.689C325.003 559.277 325.045 558.782 325.045 558.203Z" fill="#A7A7A7"/>
<path d="M376.278 550.721H376.579V552.499H376.437C375.763 552.499 375.17 552.602 374.658 552.808C374.152 553.014 373.728 553.304 373.389 553.677C373.055 554.044 372.802 554.481 372.629 554.988C372.456 555.489 372.37 556.037 372.37 556.633V558.604C372.37 559.066 372.417 559.472 372.512 559.823C372.612 560.168 372.749 560.46 372.921 560.7C373.099 560.934 373.305 561.109 373.539 561.226C373.779 561.343 374.04 561.401 374.324 561.401C374.608 561.401 374.864 561.343 375.092 561.226C375.321 561.109 375.515 560.945 375.677 560.733C375.844 560.516 375.969 560.263 376.053 559.973C376.142 559.684 376.186 559.366 376.186 559.021C376.186 558.682 376.145 558.367 376.061 558.078C375.978 557.788 375.855 557.535 375.694 557.318C375.532 557.095 375.332 556.925 375.092 556.808C374.859 556.686 374.591 556.625 374.291 556.625C373.901 556.625 373.553 556.717 373.247 556.9C372.941 557.078 372.699 557.312 372.52 557.602C372.342 557.891 372.245 558.197 372.228 558.52L371.485 558.153C371.513 557.68 371.613 557.245 371.786 556.85C371.964 556.455 372.2 556.11 372.495 555.815C372.796 555.52 373.149 555.291 373.556 555.13C373.968 554.968 374.424 554.888 374.925 554.888C375.504 554.888 376.011 554.999 376.445 555.222C376.879 555.439 377.238 555.737 377.522 556.115C377.812 556.494 378.029 556.931 378.174 557.426C378.319 557.916 378.391 558.434 378.391 558.98C378.391 559.564 378.296 560.11 378.107 560.616C377.923 561.123 377.656 561.565 377.305 561.944C376.955 562.323 376.531 562.618 376.036 562.829C375.541 563.041 374.984 563.147 374.366 563.147C373.715 563.147 373.13 563.024 372.612 562.779C372.1 562.534 371.66 562.195 371.293 561.76C370.925 561.326 370.644 560.819 370.449 560.24C370.255 559.662 370.157 559.035 370.157 558.362V557.476C370.157 556.524 370.288 555.639 370.55 554.821C370.811 554.003 371.198 553.287 371.71 552.675C372.228 552.057 372.868 551.578 373.631 551.239C374.394 550.893 375.276 550.721 376.278 550.721ZM387.961 555.856V557.902C387.961 558.838 387.866 559.636 387.677 560.299C387.487 560.961 387.215 561.504 386.858 561.927C386.502 562.345 386.076 562.654 385.581 562.854C385.085 563.049 384.534 563.147 383.927 563.147C383.443 563.147 382.992 563.085 382.575 562.963C382.157 562.835 381.781 562.64 381.447 562.378C381.119 562.111 380.835 561.771 380.595 561.359C380.362 560.948 380.181 560.455 380.053 559.881C379.93 559.308 379.869 558.648 379.869 557.902V555.856C379.869 554.921 379.964 554.125 380.153 553.468C380.348 552.811 380.623 552.274 380.98 551.856C381.336 551.439 381.762 551.136 382.257 550.946C382.753 550.751 383.304 550.654 383.911 550.654C384.401 550.654 384.851 550.715 385.263 550.838C385.681 550.96 386.054 551.152 386.382 551.414C386.716 551.67 387 552.004 387.234 552.416C387.468 552.822 387.646 553.312 387.769 553.886C387.897 554.454 387.961 555.11 387.961 555.856ZM385.756 558.203V555.547C385.756 555.08 385.728 554.673 385.673 554.328C385.622 553.978 385.547 553.68 385.447 553.435C385.347 553.19 385.222 552.992 385.071 552.842C384.921 552.686 384.748 552.572 384.554 552.499C384.359 552.427 384.144 552.391 383.911 552.391C383.621 552.391 383.362 552.449 383.134 552.566C382.906 552.678 382.714 552.856 382.558 553.101C382.402 553.346 382.282 553.671 382.199 554.078C382.121 554.479 382.082 554.968 382.082 555.547V558.203C382.082 558.671 382.107 559.08 382.157 559.43C382.213 559.781 382.291 560.082 382.391 560.332C382.497 560.583 382.622 560.789 382.767 560.95C382.917 561.106 383.089 561.223 383.284 561.301C383.479 561.373 383.694 561.41 383.927 561.41C384.222 561.41 384.481 561.351 384.704 561.234C384.932 561.117 385.124 560.934 385.28 560.683C385.436 560.427 385.553 560.096 385.631 559.689C385.714 559.277 385.756 558.782 385.756 558.203Z" fill="#A7A7A7"/>
<path d="M439.02 550.821V552.024L434.244 562.979H431.914L436.69 552.558H430.511V550.821H439.02ZM448.674 555.856V557.902C448.674 558.838 448.579 559.636 448.39 560.299C448.2 560.961 447.928 561.504 447.571 561.927C447.215 562.345 446.789 562.654 446.294 562.854C445.798 563.049 445.247 563.147 444.64 563.147C444.156 563.147 443.705 563.085 443.287 562.963C442.87 562.835 442.494 562.64 442.16 562.378C441.832 562.111 441.548 561.771 441.308 561.359C441.075 560.948 440.894 560.455 440.766 559.881C440.643 559.308 440.582 558.648 440.582 557.902V555.856C440.582 554.921 440.676 554.125 440.866 553.468C441.061 552.811 441.336 552.274 441.692 551.856C442.049 551.439 442.475 551.136 442.97 550.946C443.466 550.751 444.017 550.654 444.624 550.654C445.113 550.654 445.564 550.715 445.976 550.838C446.394 550.96 446.767 551.152 447.095 551.414C447.429 551.67 447.713 552.004 447.947 552.416C448.181 552.822 448.359 553.312 448.481 553.886C448.61 554.454 448.674 555.11 448.674 555.856ZM446.469 558.203V555.547C446.469 555.08 446.441 554.673 446.385 554.328C446.335 553.978 446.26 553.68 446.16 553.435C446.06 553.19 445.935 552.992 445.784 552.842C445.634 552.686 445.461 552.572 445.267 552.499C445.072 552.427 444.857 552.391 444.624 552.391C444.334 552.391 444.075 552.449 443.847 552.566C443.619 552.678 443.427 552.856 443.271 553.101C443.115 553.346 442.995 553.671 442.912 554.078C442.834 554.479 442.795 554.968 442.795 555.547V558.203C442.795 558.671 442.82 559.08 442.87 559.43C442.926 559.781 443.003 560.082 443.104 560.332C443.209 560.583 443.335 560.789 443.479 560.95C443.63 561.106 443.802 561.223 443.997 561.301C444.192 561.373 444.406 561.41 444.64 561.41C444.935 561.41 445.194 561.351 445.417 561.234C445.645 561.117 445.837 560.934 445.993 560.683C446.149 560.427 446.266 560.096 446.344 559.689C446.427 559.277 446.469 558.782 446.469 558.203Z" fill="#A7A7A7"/>
<path d="M125.583 472.676C112.43 474.907 72.9707 535.863 72.9707 535.863H451.781V335.77C451.781 335.77 414.952 410.705 404.429 412.121C393.907 413.537 370.231 364.199 354.448 364.73C338.664 365.261 314.988 456.348 299.204 456.879C283.421 457.41 259.745 412.121 243.961 412.121C228.178 412.121 200.345 501.278 184.561 503.369C168.778 505.461 143.998 469.551 125.583 472.676Z" fill="url(#paint1_linear_1880_2241)" fill-opacity="0.4"/>
<path d="M72.543 533.298C72.543 533.298 112.43 474.907 125.583 472.676C143.997 469.551 164.039 502.942 183.279 502.942C202.518 502.942 228.177 412.121 243.961 412.121C259.745 412.121 283.42 457.41 299.204 456.879C314.988 456.348 338.664 365.261 354.447 364.73C370.231 364.199 393.907 413.537 404.429 412.121C414.952 410.705 449.215 335.342 449.215 335.342" stroke="#20B9B0" stroke-width="5.13061" stroke-linecap="round"/>
<path d="M129.406 428.12L129.406 535.863" stroke="#FF8181" stroke-width="1.88122" stroke-linecap="round" stroke-dasharray="4.28 4.28"/>
<circle cx="128.979" cy="473.013" r="8.12346" fill="#FF8181"/>
<circle cx="128.98" cy="473.013" r="4.70306" fill="#FCDADA"/>
<rect x="96.9141" y="422.135" width="67.553" height="26.5081" rx="1.7102" fill="#FF8181"/>
<path d="M117.995 439.818V441.555H109.762V440.068L113.711 435.801C114.123 435.333 114.449 434.927 114.688 434.582C114.928 434.237 115.098 433.925 115.198 433.647C115.304 433.363 115.356 433.093 115.356 432.837C115.356 432.464 115.29 432.138 115.156 431.86C115.022 431.576 114.828 431.356 114.572 431.2C114.321 431.044 114.012 430.966 113.645 430.966C113.238 430.966 112.89 431.061 112.601 431.25C112.317 431.434 112.1 431.69 111.949 432.018C111.805 432.347 111.732 432.723 111.732 433.146H109.519C109.519 432.427 109.686 431.773 110.02 431.183C110.354 430.588 110.833 430.112 111.457 429.755C112.08 429.399 112.821 429.221 113.678 429.221C114.513 429.221 115.22 429.36 115.799 429.638C116.378 429.911 116.818 430.301 117.118 430.807C117.419 431.314 117.569 431.918 117.569 432.62C117.569 433.009 117.505 433.393 117.377 433.772C117.249 434.15 117.068 434.526 116.835 434.899C116.606 435.267 116.334 435.64 116.016 436.018C115.699 436.397 115.345 436.784 114.956 437.179L112.584 439.818H117.995ZM127.974 437.121V438.857H119.214L119.123 437.521L124.275 429.396H126.037L124.133 432.628L121.369 437.121H127.974ZM126.53 429.396V441.555H124.317V429.396H126.53ZM129.511 440.477C129.511 440.143 129.625 439.862 129.853 439.634C130.081 439.406 130.39 439.292 130.78 439.292C131.17 439.292 131.479 439.406 131.707 439.634C131.935 439.862 132.049 440.143 132.049 440.477C132.049 440.806 131.935 441.084 131.707 441.313C131.479 441.535 131.17 441.647 130.78 441.647C130.39 441.647 130.081 441.535 129.853 441.313C129.625 441.084 129.511 440.806 129.511 440.477ZM142.212 434.432V436.478C142.212 437.413 142.117 438.212 141.928 438.874C141.739 439.537 141.466 440.079 141.11 440.503C140.753 440.92 140.328 441.229 139.832 441.429C139.337 441.624 138.785 441.722 138.179 441.722C137.694 441.722 137.243 441.66 136.826 441.538C136.408 441.41 136.033 441.215 135.699 440.953C135.37 440.686 135.086 440.347 134.847 439.935C134.613 439.523 134.432 439.03 134.304 438.457C134.182 437.883 134.12 437.224 134.12 436.478V434.432C134.12 433.496 134.215 432.7 134.404 432.043C134.599 431.386 134.875 430.849 135.231 430.432C135.587 430.014 136.013 429.711 136.509 429.521C137.004 429.327 137.555 429.229 138.162 429.229C138.652 429.229 139.103 429.29 139.515 429.413C139.932 429.535 140.305 429.727 140.634 429.989C140.968 430.245 141.252 430.579 141.486 430.991C141.719 431.398 141.897 431.887 142.02 432.461C142.148 433.029 142.212 433.686 142.212 434.432ZM140.007 436.778V434.123C140.007 433.655 139.98 433.249 139.924 432.903C139.874 432.553 139.799 432.255 139.698 432.01C139.598 431.765 139.473 431.567 139.323 431.417C139.172 431.261 139 431.147 138.805 431.075C138.61 431.002 138.396 430.966 138.162 430.966C137.872 430.966 137.614 431.025 137.385 431.141C137.157 431.253 136.965 431.431 136.809 431.676C136.653 431.921 136.534 432.247 136.45 432.653C136.372 433.054 136.333 433.544 136.333 434.123V436.778C136.333 437.246 136.358 437.655 136.408 438.006C136.464 438.356 136.542 438.657 136.642 438.908C136.748 439.158 136.873 439.364 137.018 439.525C137.168 439.681 137.341 439.798 137.536 439.876C137.731 439.949 137.945 439.985 138.179 439.985C138.474 439.985 138.733 439.926 138.955 439.809C139.184 439.693 139.376 439.509 139.531 439.258C139.687 439.002 139.804 438.671 139.882 438.265C139.966 437.853 140.007 437.357 140.007 436.778ZM151.999 438.231C151.999 438.988 151.821 439.628 151.464 440.152C151.114 440.67 150.632 441.062 150.02 441.329C149.413 441.591 148.723 441.722 147.949 441.722C147.181 441.722 146.488 441.591 145.87 441.329C145.257 441.062 144.77 440.67 144.408 440.152C144.052 439.628 143.874 438.988 143.874 438.231C143.874 437.725 143.974 437.265 144.174 436.853C144.38 436.441 144.664 436.088 145.026 435.793C145.388 435.492 145.817 435.264 146.312 435.108C146.808 434.947 147.348 434.866 147.932 434.866C148.712 434.866 149.407 435.008 150.02 435.292C150.638 435.57 151.122 435.963 151.473 436.469C151.824 436.97 151.999 437.558 151.999 438.231ZM149.778 438.098C149.778 437.708 149.7 437.371 149.544 437.087C149.394 436.798 149.179 436.575 148.901 436.419C148.622 436.263 148.3 436.185 147.932 436.185C147.559 436.185 147.234 436.263 146.955 436.419C146.682 436.575 146.468 436.798 146.312 437.087C146.162 437.371 146.087 437.708 146.087 438.098C146.087 438.493 146.162 438.832 146.312 439.116C146.468 439.395 146.685 439.609 146.964 439.759C147.242 439.91 147.57 439.985 147.949 439.985C148.327 439.985 148.653 439.91 148.926 439.759C149.199 439.609 149.407 439.395 149.552 439.116C149.702 438.832 149.778 438.493 149.778 438.098ZM151.732 432.603C151.732 433.215 151.57 433.761 151.247 434.24C150.924 434.713 150.476 435.083 149.903 435.35C149.335 435.617 148.684 435.751 147.949 435.751C147.214 435.751 146.557 435.617 145.978 435.35C145.405 435.083 144.954 434.713 144.625 434.24C144.302 433.761 144.141 433.215 144.141 432.603C144.141 431.879 144.305 431.267 144.634 430.766C144.962 430.259 145.41 429.875 145.978 429.613C146.552 429.352 147.203 429.221 147.932 429.221C148.673 429.221 149.33 429.352 149.903 429.613C150.476 429.875 150.924 430.259 151.247 430.766C151.57 431.267 151.732 431.879 151.732 432.603ZM149.527 432.695C149.527 432.35 149.463 432.049 149.335 431.793C149.207 431.531 149.023 431.328 148.784 431.183C148.55 431.038 148.266 430.966 147.932 430.966C147.609 430.966 147.331 431.036 147.097 431.175C146.863 431.314 146.682 431.514 146.554 431.776C146.426 432.032 146.362 432.338 146.362 432.695C146.362 433.045 146.426 433.352 146.554 433.613C146.682 433.875 146.863 434.081 147.097 434.231C147.336 434.376 147.62 434.448 147.949 434.448C148.277 434.448 148.558 434.376 148.792 434.231C149.026 434.081 149.207 433.875 149.335 433.613C149.463 433.352 149.527 433.045 149.527 432.695Z" fill="white"/>
<path d="M355.154 345.175L355.154 535.862" stroke="#37D9D0" stroke-width="1.88122" stroke-linecap="round" stroke-dasharray="4.28 4.28"/>
<rect x="320.949" y="321.232" width="67.553" height="28.2183" rx="1.7102" fill="#20B2AA"/>
<path d="M342.241 337.074V338.811H333.481L333.39 337.474L338.542 329.349H340.304L338.4 332.581L335.636 337.074H342.241ZM340.796 329.349V341.508H338.584V329.349H340.796ZM351.636 338.184C351.636 338.941 351.457 339.582 351.101 340.105C350.75 340.623 350.269 341.015 349.656 341.282C349.05 341.544 348.359 341.675 347.586 341.675C346.817 341.675 346.124 341.544 345.506 341.282C344.894 341.015 344.407 340.623 344.045 340.105C343.689 339.582 343.51 338.941 343.51 338.184C343.51 337.678 343.611 337.218 343.811 336.806C344.017 336.394 344.301 336.041 344.663 335.746C345.025 335.445 345.453 335.217 345.949 335.061C346.444 334.9 346.984 334.819 347.569 334.819C348.348 334.819 349.044 334.961 349.656 335.245C350.274 335.523 350.759 335.916 351.109 336.422C351.46 336.923 351.636 337.511 351.636 338.184ZM349.414 338.051C349.414 337.661 349.336 337.324 349.18 337.04C349.03 336.751 348.816 336.528 348.537 336.372C348.259 336.216 347.936 336.138 347.569 336.138C347.196 336.138 346.87 336.216 346.592 336.372C346.319 336.528 346.105 336.751 345.949 337.04C345.798 337.324 345.723 337.661 345.723 338.051C345.723 338.446 345.798 338.786 345.949 339.069C346.105 339.348 346.322 339.562 346.6 339.712C346.879 339.863 347.207 339.938 347.586 339.938C347.964 339.938 348.29 339.863 348.563 339.712C348.835 339.562 349.044 339.348 349.189 339.069C349.339 338.786 349.414 338.446 349.414 338.051ZM351.368 332.556C351.368 333.168 351.207 333.714 350.884 334.193C350.561 334.666 350.113 335.036 349.54 335.303C348.972 335.571 348.32 335.704 347.586 335.704C346.851 335.704 346.194 335.571 345.615 335.303C345.041 335.036 344.59 334.666 344.262 334.193C343.939 333.714 343.778 333.168 343.778 332.556C343.778 331.832 343.942 331.22 344.27 330.719C344.599 330.212 345.047 329.828 345.615 329.566C346.188 329.305 346.84 329.174 347.569 329.174C348.309 329.174 348.966 329.305 349.54 329.566C350.113 329.828 350.561 330.212 350.884 330.719C351.207 331.22 351.368 331.832 351.368 332.556ZM349.164 332.648C349.164 332.303 349.1 332.002 348.972 331.746C348.844 331.484 348.66 331.281 348.421 331.136C348.187 330.992 347.903 330.919 347.569 330.919C347.246 330.919 346.968 330.989 346.734 331.128C346.5 331.267 346.319 331.468 346.191 331.729C346.063 331.985 345.999 332.292 345.999 332.648C345.999 332.999 346.063 333.305 346.191 333.566C346.319 333.828 346.5 334.034 346.734 334.184C346.973 334.329 347.257 334.401 347.586 334.401C347.914 334.401 348.195 334.329 348.429 334.184C348.663 334.034 348.844 333.828 348.972 333.566C349.1 333.305 349.164 332.999 349.164 332.648ZM353.548 340.431C353.548 340.097 353.662 339.815 353.89 339.587C354.118 339.359 354.427 339.245 354.817 339.245C355.207 339.245 355.516 339.359 355.744 339.587C355.972 339.815 356.086 340.097 356.086 340.431C356.086 340.759 355.972 341.037 355.744 341.266C355.516 341.488 355.207 341.6 354.817 341.6C354.427 341.6 354.118 341.488 353.89 341.266C353.662 341.037 353.548 340.759 353.548 340.431ZM366.249 334.385V336.431C366.249 337.366 366.154 338.165 365.965 338.827C365.776 339.49 365.503 340.033 365.147 340.456C364.791 340.873 364.365 341.182 363.869 341.383C363.374 341.577 362.823 341.675 362.216 341.675C361.731 341.675 361.281 341.614 360.863 341.491C360.445 341.363 360.07 341.168 359.736 340.907C359.407 340.639 359.123 340.3 358.884 339.888C358.65 339.476 358.469 338.983 358.341 338.41C358.219 337.836 358.157 337.177 358.157 336.431V334.385C358.157 333.449 358.252 332.653 358.441 331.996C358.636 331.34 358.912 330.802 359.268 330.385C359.624 329.967 360.05 329.664 360.546 329.475C361.041 329.28 361.592 329.182 362.199 329.182C362.689 329.182 363.14 329.244 363.552 329.366C363.969 329.489 364.342 329.681 364.671 329.942C365.005 330.198 365.289 330.532 365.523 330.944C365.756 331.351 365.935 331.841 366.057 332.414C366.185 332.982 366.249 333.639 366.249 334.385ZM364.045 336.731V334.076C364.045 333.608 364.017 333.202 363.961 332.857C363.911 332.506 363.836 332.208 363.736 331.963C363.635 331.718 363.51 331.52 363.36 331.37C363.209 331.214 363.037 331.1 362.842 331.028C362.647 330.955 362.433 330.919 362.199 330.919C361.91 330.919 361.651 330.978 361.422 331.095C361.194 331.206 361.002 331.384 360.846 331.629C360.69 331.874 360.571 332.2 360.487 332.606C360.409 333.007 360.37 333.497 360.37 334.076V336.731C360.37 337.199 360.395 337.608 360.445 337.959C360.501 338.31 360.579 338.61 360.679 338.861C360.785 339.111 360.91 339.317 361.055 339.479C361.205 339.634 361.378 339.751 361.573 339.829C361.768 339.902 361.982 339.938 362.216 339.938C362.511 339.938 362.77 339.879 362.992 339.763C363.221 339.646 363.413 339.462 363.569 339.211C363.724 338.955 363.841 338.624 363.919 338.218C364.003 337.806 364.045 337.31 364.045 336.731ZM369.631 339.796H369.79C370.508 339.796 371.115 339.704 371.61 339.52C372.111 339.337 372.515 339.078 372.821 338.744C373.133 338.404 373.358 338.001 373.497 337.533C373.642 337.06 373.715 336.536 373.715 335.963V333.758C373.715 333.291 373.667 332.882 373.573 332.531C373.478 332.175 373.344 331.877 373.172 331.637C373.005 331.398 372.807 331.22 372.579 331.103C372.351 330.98 372.106 330.919 371.844 330.919C371.555 330.919 371.298 330.986 371.076 331.12C370.853 331.253 370.664 331.437 370.508 331.671C370.358 331.899 370.241 332.163 370.157 332.464C370.079 332.765 370.04 333.082 370.04 333.416C370.04 333.739 370.076 334.048 370.149 334.343C370.227 334.638 370.341 334.9 370.491 335.128C370.647 335.356 370.842 335.537 371.076 335.671C371.31 335.799 371.582 335.863 371.894 335.863C372.189 335.863 372.456 335.807 372.696 335.696C372.941 335.579 373.152 335.426 373.33 335.237C373.509 335.042 373.645 334.827 373.74 334.594C373.84 334.354 373.895 334.112 373.907 333.867L374.683 334.201C374.683 334.607 374.597 335.008 374.424 335.404C374.257 335.799 374.021 336.158 373.715 336.481C373.414 336.798 373.063 337.054 372.662 337.249C372.262 337.438 371.83 337.533 371.368 337.533C370.795 337.533 370.288 337.427 369.848 337.216C369.408 337.004 369.038 336.712 368.738 336.339C368.443 335.96 368.22 335.526 368.07 335.036C367.919 334.541 367.844 334.012 367.844 333.449C367.844 332.865 367.936 332.317 368.12 331.804C368.303 331.287 368.568 330.833 368.913 330.443C369.264 330.048 369.687 329.739 370.182 329.516C370.678 329.288 371.234 329.174 371.852 329.174C372.493 329.174 373.063 329.299 373.564 329.55C374.065 329.8 374.491 330.148 374.842 330.594C375.193 331.033 375.46 331.554 375.644 332.155C375.833 332.756 375.927 333.413 375.927 334.126V334.902C375.927 335.654 375.852 336.367 375.702 337.04C375.552 337.714 375.321 338.329 375.009 338.886C374.697 339.442 374.299 339.924 373.815 340.33C373.336 340.737 372.763 341.051 372.095 341.274C371.432 341.491 370.675 341.6 369.823 341.6H369.631V339.796Z" fill="white"/>
<circle cx="354.727" cy="363.56" r="8.12346" fill="#20B2AA"/>
<circle cx="354.727" cy="363.56" r="4.70306" fill="#DAFCFA"/>
<g filter="url(#filter1_d_1880_2241)">
<path d="M217.912 56.1522C217.912 39.6231 231.312 26.2236 247.841 26.2236H543.706C545.595 26.2236 547.126 27.755 547.126 29.644V264.797C547.126 281.326 533.727 294.725 517.198 294.725H221.333C219.443 294.725 217.912 293.194 217.912 291.305V56.1522Z" fill="white"/>
</g>
<rect x="258.955" y="173.302" width="34.2041" height="58.1469" rx="5.13061" fill="#FEE355"/>
<rect x="329.928" y="124.562" width="34.2041" height="106.888" rx="5.13061" fill="#FF8181"/>
<rect x="400.902" y="81.8057" width="34.2041" height="149.643" rx="5.13061" fill="#81FF9C"/>
<rect x="471.875" y="48.457" width="34.2041" height="182.992" rx="5.13061" fill="#20CFC6"/>
<path d="M267.221 247.228V259.42H265.008V249.808L262.077 250.777V248.99L266.971 247.228H267.221ZM279.363 252.297V254.343C279.363 255.278 279.268 256.077 279.079 256.739C278.89 257.402 278.617 257.945 278.261 258.368C277.904 258.785 277.479 259.094 276.983 259.295C276.488 259.49 275.936 259.587 275.33 259.587C274.845 259.587 274.394 259.526 273.977 259.403C273.559 259.275 273.184 259.08 272.85 258.819C272.521 258.551 272.237 258.212 271.998 257.8C271.764 257.388 271.583 256.895 271.455 256.322C271.333 255.748 271.271 255.089 271.271 254.343V252.297C271.271 251.362 271.366 250.566 271.555 249.909C271.75 249.252 272.026 248.714 272.382 248.297C272.738 247.879 273.164 247.576 273.66 247.387C274.155 247.192 274.706 247.094 275.313 247.094C275.803 247.094 276.254 247.156 276.666 247.278C277.083 247.401 277.456 247.593 277.785 247.854C278.119 248.11 278.403 248.444 278.637 248.856C278.87 249.263 279.048 249.753 279.171 250.326C279.299 250.894 279.363 251.551 279.363 252.297ZM277.158 254.643V251.988C277.158 251.52 277.131 251.114 277.075 250.769C277.025 250.418 276.95 250.12 276.849 249.875C276.749 249.63 276.624 249.433 276.474 249.282C276.323 249.126 276.151 249.012 275.956 248.94C275.761 248.868 275.547 248.831 275.313 248.831C275.023 248.831 274.765 248.89 274.536 249.007C274.308 249.118 274.116 249.296 273.96 249.541C273.804 249.786 273.685 250.112 273.601 250.518C273.523 250.919 273.484 251.409 273.484 251.988V254.643C273.484 255.111 273.509 255.52 273.559 255.871C273.615 256.222 273.693 256.522 273.793 256.773C273.899 257.023 274.024 257.229 274.169 257.391C274.319 257.547 274.492 257.664 274.687 257.741C274.882 257.814 275.096 257.85 275.33 257.85C275.625 257.85 275.884 257.792 276.106 257.675C276.335 257.558 276.527 257.374 276.682 257.124C276.838 256.867 276.955 256.536 277.033 256.13C277.117 255.718 277.158 255.222 277.158 254.643ZM289.133 252.297V254.343C289.133 255.278 289.039 256.077 288.849 256.739C288.66 257.402 288.387 257.945 288.031 258.368C287.675 258.785 287.249 259.094 286.753 259.295C286.258 259.49 285.707 259.587 285.1 259.587C284.616 259.587 284.165 259.526 283.747 259.403C283.33 259.275 282.954 259.08 282.62 258.819C282.291 258.551 282.007 258.212 281.768 257.8C281.534 257.388 281.353 256.895 281.225 256.322C281.103 255.748 281.041 255.089 281.041 254.343V252.297C281.041 251.362 281.136 250.566 281.325 249.909C281.52 249.252 281.796 248.714 282.152 248.297C282.508 247.879 282.934 247.576 283.43 247.387C283.925 247.192 284.476 247.094 285.083 247.094C285.573 247.094 286.024 247.156 286.436 247.278C286.853 247.401 287.226 247.593 287.555 247.854C287.889 248.11 288.173 248.444 288.407 248.856C288.641 249.263 288.819 249.753 288.941 250.326C289.069 250.894 289.133 251.551 289.133 252.297ZM286.929 254.643V251.988C286.929 251.52 286.901 251.114 286.845 250.769C286.795 250.418 286.72 250.12 286.62 249.875C286.519 249.63 286.394 249.433 286.244 249.282C286.094 249.126 285.921 249.012 285.726 248.94C285.531 248.868 285.317 248.831 285.083 248.831C284.794 248.831 284.535 248.89 284.307 249.007C284.078 249.118 283.886 249.296 283.73 249.541C283.574 249.786 283.455 250.112 283.371 250.518C283.293 250.919 283.254 251.409 283.254 251.988V254.643C283.254 255.111 283.279 255.52 283.33 255.871C283.385 256.222 283.463 256.522 283.563 256.773C283.669 257.023 283.794 257.229 283.939 257.391C284.089 257.547 284.262 257.664 284.457 257.741C284.652 257.814 284.866 257.85 285.1 257.85C285.395 257.85 285.654 257.792 285.876 257.675C286.105 257.558 286.297 257.374 286.453 257.124C286.609 256.867 286.725 256.536 286.803 256.13C286.887 255.718 286.929 255.222 286.929 254.643Z" fill="#A7A7A7"/>
<path d="M342.46 257.683V259.42H334.226V257.934L338.176 253.666C338.588 253.199 338.914 252.792 339.153 252.447C339.393 252.102 339.562 251.79 339.663 251.512C339.768 251.228 339.821 250.958 339.821 250.702C339.821 250.329 339.755 250.003 339.621 249.725C339.487 249.441 339.292 249.221 339.036 249.065C338.786 248.909 338.477 248.831 338.109 248.831C337.703 248.831 337.355 248.926 337.066 249.115C336.782 249.299 336.565 249.555 336.414 249.884C336.27 250.212 336.197 250.588 336.197 251.011H333.984C333.984 250.293 334.151 249.639 334.485 249.048C334.819 248.453 335.298 247.977 335.922 247.621C336.545 247.264 337.286 247.086 338.143 247.086C338.978 247.086 339.685 247.225 340.264 247.504C340.843 247.776 341.283 248.166 341.583 248.673C341.884 249.179 342.034 249.783 342.034 250.485C342.034 250.874 341.97 251.259 341.842 251.637C341.714 252.016 341.533 252.392 341.299 252.764C341.071 253.132 340.798 253.505 340.481 253.883C340.164 254.262 339.81 254.649 339.42 255.044L337.049 257.683H342.46ZM352.047 252.297V254.343C352.047 255.278 351.952 256.077 351.763 256.739C351.573 257.402 351.301 257.945 350.944 258.368C350.588 258.785 350.162 259.094 349.667 259.295C349.171 259.49 348.62 259.587 348.013 259.587C347.529 259.587 347.078 259.526 346.66 259.403C346.243 259.275 345.867 259.08 345.533 258.819C345.205 258.551 344.921 258.212 344.681 257.8C344.448 257.388 344.267 256.895 344.139 256.322C344.016 255.748 343.955 255.089 343.955 254.343V252.297C343.955 251.362 344.05 250.566 344.239 249.909C344.434 249.252 344.709 248.714 345.066 248.297C345.422 247.879 345.848 247.576 346.343 247.387C346.839 247.192 347.39 247.094 347.997 247.094C348.486 247.094 348.937 247.156 349.349 247.278C349.767 247.401 350.14 247.593 350.468 247.854C350.802 248.11 351.086 248.444 351.32 248.856C351.554 249.263 351.732 249.753 351.855 250.326C351.983 250.894 352.047 251.551 352.047 252.297ZM349.842 254.643V251.988C349.842 251.52 349.814 251.114 349.759 250.769C349.708 250.418 349.633 250.12 349.533 249.875C349.433 249.63 349.308 249.433 349.157 249.282C349.007 249.126 348.834 249.012 348.64 248.94C348.445 248.868 348.23 248.831 347.997 248.831C347.707 248.831 347.448 248.89 347.22 249.007C346.992 249.118 346.8 249.296 346.644 249.541C346.488 249.786 346.368 250.112 346.285 250.518C346.207 250.919 346.168 251.409 346.168 251.988V254.643C346.168 255.111 346.193 255.52 346.243 255.871C346.299 256.222 346.377 256.522 346.477 256.773C346.583 257.023 346.708 257.229 346.853 257.391C347.003 257.547 347.175 257.664 347.37 257.741C347.565 257.814 347.779 257.85 348.013 257.85C348.308 257.85 348.567 257.792 348.79 257.675C349.018 257.558 349.21 257.374 349.366 257.124C349.522 256.867 349.639 256.536 349.717 256.13C349.8 255.718 349.842 255.222 349.842 254.643ZM361.817 252.297V254.343C361.817 255.278 361.722 256.077 361.533 256.739C361.344 257.402 361.071 257.945 360.715 258.368C360.358 258.785 359.932 259.094 359.437 259.295C358.941 259.49 358.39 259.587 357.783 259.587C357.299 259.587 356.848 259.526 356.431 259.403C356.013 259.275 355.637 259.08 355.303 258.819C354.975 258.551 354.691 258.212 354.452 257.8C354.218 257.388 354.037 256.895 353.909 256.322C353.786 255.748 353.725 255.089 353.725 254.343V252.297C353.725 251.362 353.82 250.566 354.009 249.909C354.204 249.252 354.479 248.714 354.836 248.297C355.192 247.879 355.618 247.576 356.113 247.387C356.609 247.192 357.16 247.094 357.767 247.094C358.257 247.094 358.708 247.156 359.12 247.278C359.537 247.401 359.91 247.593 360.239 247.854C360.573 248.11 360.856 248.444 361.09 248.856C361.324 249.263 361.502 249.753 361.625 250.326C361.753 250.894 361.817 251.551 361.817 252.297ZM359.612 254.643V251.988C359.612 251.52 359.584 251.114 359.529 250.769C359.479 250.418 359.403 250.12 359.303 249.875C359.203 249.63 359.078 249.433 358.927 249.282C358.777 249.126 358.605 249.012 358.41 248.94C358.215 248.868 358.001 248.831 357.767 248.831C357.477 248.831 357.218 248.89 356.99 249.007C356.762 249.118 356.57 249.296 356.414 249.541C356.258 249.786 356.138 250.112 356.055 250.518C355.977 250.919 355.938 251.409 355.938 251.988V254.643C355.938 255.111 355.963 255.52 356.013 255.871C356.069 256.222 356.147 256.522 356.247 256.773C356.353 257.023 356.478 257.229 356.623 257.391C356.773 257.547 356.946 257.664 357.14 257.741C357.335 257.814 357.55 257.85 357.783 257.85C358.079 257.85 358.337 257.792 358.56 257.675C358.788 257.558 358.98 257.374 359.136 257.124C359.292 256.867 359.409 256.536 359.487 256.13C359.57 255.718 359.612 255.222 359.612 254.643Z" fill="#A7A7A7"/>
<path d="M405.9 252.364H407.144C407.584 252.364 407.945 252.289 408.229 252.138C408.519 251.982 408.733 251.771 408.872 251.504C409.017 251.231 409.089 250.916 409.089 250.56C409.089 250.209 409.025 249.906 408.897 249.65C408.769 249.388 408.574 249.188 408.313 249.048C408.057 248.904 407.728 248.831 407.327 248.831C407.005 248.831 406.707 248.895 406.434 249.023C406.167 249.151 405.952 249.335 405.791 249.575C405.635 249.808 405.557 250.09 405.557 250.418H403.344C403.344 249.761 403.517 249.185 403.862 248.689C404.213 248.188 404.686 247.796 405.282 247.512C405.877 247.228 406.543 247.086 407.277 247.086C408.079 247.086 408.78 247.22 409.382 247.487C409.989 247.749 410.459 248.135 410.793 248.648C411.133 249.16 411.302 249.794 411.302 250.552C411.302 250.913 411.216 251.275 411.043 251.637C410.876 251.993 410.629 252.316 410.3 252.606C409.977 252.89 409.579 253.121 409.106 253.299C408.639 253.472 408.101 253.558 407.494 253.558H405.9V252.364ZM405.9 254.067V252.89H407.494C408.179 252.89 408.772 252.97 409.273 253.132C409.78 253.288 410.197 253.51 410.526 253.8C410.854 254.084 411.096 254.415 411.252 254.794C411.414 255.172 411.494 255.579 411.494 256.013C411.494 256.581 411.389 257.087 411.177 257.533C410.966 257.972 410.668 258.345 410.284 258.652C409.905 258.958 409.46 259.192 408.947 259.353C408.435 259.509 407.881 259.587 407.286 259.587C406.768 259.587 406.264 259.517 405.774 259.378C405.29 259.233 404.853 259.019 404.463 258.735C404.074 258.446 403.765 258.084 403.536 257.65C403.308 257.21 403.194 256.7 403.194 256.121H405.407C405.407 256.455 405.488 256.753 405.649 257.015C405.816 257.277 406.044 257.483 406.334 257.633C406.629 257.778 406.96 257.85 407.327 257.85C407.734 257.85 408.082 257.778 408.371 257.633C408.666 257.483 408.892 257.271 409.048 256.998C409.204 256.72 409.282 256.389 409.282 256.005C409.282 255.548 409.195 255.178 409.023 254.894C408.85 254.61 408.602 254.401 408.279 254.268C407.962 254.134 407.584 254.067 407.144 254.067H405.9ZM421.306 252.297V254.343C421.306 255.278 421.212 256.077 421.022 256.739C420.833 257.402 420.56 257.945 420.204 258.368C419.848 258.785 419.422 259.094 418.926 259.295C418.431 259.49 417.88 259.587 417.273 259.587C416.789 259.587 416.338 259.526 415.92 259.403C415.503 259.275 415.127 259.08 414.793 258.819C414.464 258.551 414.181 258.212 413.941 257.8C413.707 257.388 413.526 256.895 413.398 256.322C413.276 255.748 413.215 255.089 413.215 254.343V252.297C413.215 251.362 413.309 250.566 413.499 249.909C413.693 249.252 413.969 248.714 414.325 248.297C414.682 247.879 415.107 247.576 415.603 247.387C416.098 247.192 416.65 247.094 417.256 247.094C417.746 247.094 418.197 247.156 418.609 247.278C419.027 247.401 419.4 247.593 419.728 247.854C420.062 248.11 420.346 248.444 420.58 248.856C420.814 249.263 420.992 249.753 421.114 250.326C421.242 250.894 421.306 251.551 421.306 252.297ZM419.102 254.643V251.988C419.102 251.52 419.074 251.114 419.018 250.769C418.968 250.418 418.893 250.12 418.793 249.875C418.693 249.63 418.567 249.433 418.417 249.282C418.267 249.126 418.094 249.012 417.899 248.94C417.704 248.868 417.49 248.831 417.256 248.831C416.967 248.831 416.708 248.89 416.48 249.007C416.251 249.118 416.059 249.296 415.904 249.541C415.748 249.786 415.628 250.112 415.544 250.518C415.467 250.919 415.428 251.409 415.428 251.988V254.643C415.428 255.111 415.453 255.52 415.503 255.871C415.558 256.222 415.636 256.522 415.737 256.773C415.842 257.023 415.968 257.229 416.112 257.391C416.263 257.547 416.435 257.664 416.63 257.741C416.825 257.814 417.039 257.85 417.273 257.85C417.568 257.85 417.827 257.792 418.05 257.675C418.278 257.558 418.47 257.374 418.626 257.124C418.782 256.867 418.899 256.536 418.977 256.13C419.06 255.718 419.102 255.222 419.102 254.643ZM431.077 252.297V254.343C431.077 255.278 430.982 256.077 430.793 256.739C430.603 257.402 430.331 257.945 429.974 258.368C429.618 258.785 429.192 259.094 428.697 259.295C428.201 259.49 427.65 259.587 427.043 259.587C426.559 259.587 426.108 259.526 425.69 259.403C425.273 259.275 424.897 259.08 424.563 258.819C424.235 258.551 423.951 258.212 423.711 257.8C423.478 257.388 423.297 256.895 423.169 256.322C423.046 255.748 422.985 255.089 422.985 254.343V252.297C422.985 251.362 423.079 250.566 423.269 249.909C423.464 249.252 423.739 248.714 424.095 248.297C424.452 247.879 424.878 247.576 425.373 247.387C425.869 247.192 426.42 247.094 427.027 247.094C427.516 247.094 427.967 247.156 428.379 247.278C428.797 247.401 429.17 247.593 429.498 247.854C429.832 248.11 430.116 248.444 430.35 248.856C430.584 249.263 430.762 249.753 430.885 250.326C431.013 250.894 431.077 251.551 431.077 252.297ZM428.872 254.643V251.988C428.872 251.52 428.844 251.114 428.789 250.769C428.738 250.418 428.663 250.12 428.563 249.875C428.463 249.63 428.338 249.433 428.187 249.282C428.037 249.126 427.864 249.012 427.67 248.94C427.475 248.868 427.26 248.831 427.027 248.831C426.737 248.831 426.478 248.89 426.25 249.007C426.022 249.118 425.83 249.296 425.674 249.541C425.518 249.786 425.398 250.112 425.315 250.518C425.237 250.919 425.198 251.409 425.198 251.988V254.643C425.198 255.111 425.223 255.52 425.273 255.871C425.329 256.222 425.407 256.522 425.507 256.773C425.612 257.023 425.738 257.229 425.882 257.391C426.033 257.547 426.205 257.664 426.4 257.741C426.595 257.814 426.809 257.85 427.043 257.85C427.338 257.85 427.597 257.792 427.82 257.675C428.048 257.558 428.24 257.374 428.396 257.124C428.552 256.867 428.669 256.536 428.747 256.13C428.83 255.718 428.872 255.222 428.872 254.643Z" fill="#A7A7A7"/>
<path d="M481.194 254.986V256.723H472.434L472.343 255.387L477.495 247.261H479.257L477.353 250.493L474.589 254.986H481.194ZM479.75 247.261V259.42H477.537V247.261H479.75ZM490.572 252.297V254.343C490.572 255.278 490.477 256.077 490.288 256.739C490.099 257.402 489.826 257.945 489.47 258.368C489.113 258.785 488.688 259.094 488.192 259.295C487.697 259.49 487.145 259.587 486.539 259.587C486.054 259.587 485.603 259.526 485.186 259.403C484.768 259.275 484.393 259.08 484.059 258.819C483.73 258.551 483.446 258.212 483.207 257.8C482.973 257.388 482.792 256.895 482.664 256.322C482.541 255.748 482.48 255.089 482.48 254.343V252.297C482.48 251.362 482.575 250.566 482.764 249.909C482.959 249.252 483.235 248.714 483.591 248.297C483.947 247.879 484.373 247.576 484.869 247.387C485.364 247.192 485.915 247.094 486.522 247.094C487.012 247.094 487.463 247.156 487.875 247.278C488.292 247.401 488.665 247.593 488.994 247.854C489.328 248.11 489.612 248.444 489.845 248.856C490.079 249.263 490.257 249.753 490.38 250.326C490.508 250.894 490.572 251.551 490.572 252.297ZM488.367 254.643V251.988C488.367 251.52 488.34 251.114 488.284 250.769C488.234 250.418 488.159 250.12 488.058 249.875C487.958 249.63 487.833 249.433 487.683 249.282C487.532 249.126 487.36 249.012 487.165 248.94C486.97 248.868 486.756 248.831 486.522 248.831C486.232 248.831 485.974 248.89 485.745 249.007C485.517 249.118 485.325 249.296 485.169 249.541C485.013 249.786 484.894 250.112 484.81 250.518C484.732 250.919 484.693 251.409 484.693 251.988V254.643C484.693 255.111 484.718 255.52 484.768 255.871C484.824 256.222 484.902 256.522 485.002 256.773C485.108 257.023 485.233 257.229 485.378 257.391C485.528 257.547 485.701 257.664 485.896 257.741C486.091 257.814 486.305 257.85 486.539 257.85C486.834 257.85 487.093 257.792 487.315 257.675C487.544 257.558 487.736 257.374 487.891 257.124C488.047 256.867 488.164 256.536 488.242 256.13C488.326 255.718 488.367 255.222 488.367 254.643ZM500.342 252.297V254.343C500.342 255.278 500.248 256.077 500.058 256.739C499.869 257.402 499.596 257.945 499.24 258.368C498.884 258.785 498.458 259.094 497.962 259.295C497.467 259.49 496.916 259.587 496.309 259.587C495.825 259.587 495.374 259.526 494.956 259.403C494.539 259.275 494.163 259.08 493.829 258.819C493.5 258.551 493.216 258.212 492.977 257.8C492.743 257.388 492.562 256.895 492.434 256.322C492.312 255.748 492.25 255.089 492.25 254.343V252.297C492.25 251.362 492.345 250.566 492.534 249.909C492.729 249.252 493.005 248.714 493.361 248.297C493.717 247.879 494.143 247.576 494.639 247.387C495.134 247.192 495.685 247.094 496.292 247.094C496.782 247.094 497.233 247.156 497.645 247.278C498.062 247.401 498.435 247.593 498.764 247.854C499.098 248.11 499.382 248.444 499.616 248.856C499.85 249.263 500.028 249.753 500.15 250.326C500.278 250.894 500.342 251.551 500.342 252.297ZM498.138 254.643V251.988C498.138 251.52 498.11 251.114 498.054 250.769C498.004 250.418 497.929 250.12 497.829 249.875C497.728 249.63 497.603 249.433 497.453 249.282C497.303 249.126 497.13 249.012 496.935 248.94C496.74 248.868 496.526 248.831 496.292 248.831C496.003 248.831 495.744 248.89 495.516 249.007C495.287 249.118 495.095 249.296 494.939 249.541C494.783 249.786 494.664 250.112 494.58 250.518C494.502 250.919 494.463 251.409 494.463 251.988V254.643C494.463 255.111 494.488 255.52 494.539 255.871C494.594 256.222 494.672 256.522 494.772 256.773C494.878 257.023 495.003 257.229 495.148 257.391C495.298 257.547 495.471 257.664 495.666 257.741C495.861 257.814 496.075 257.85 496.309 257.85C496.604 257.85 496.863 257.792 497.085 257.675C497.314 257.558 497.506 257.374 497.662 257.124C497.818 256.867 497.934 256.536 498.012 256.13C498.096 255.718 498.138 255.222 498.138 254.643Z" fill="#A7A7A7"/>
<path d="M259.981 44.3864V57.7607H256.766V44.3864H259.981ZM265.331 49.9437V57.7607H262.236V47.8219H265.139L265.331 49.9437ZM264.964 52.4514L264.238 52.4698C264.238 51.7105 264.33 51.0338 264.514 50.4398C264.698 49.8396 264.958 49.3314 265.295 48.915C265.632 48.4985 266.033 48.1832 266.498 47.9688C266.97 47.7484 267.493 47.6381 268.069 47.6381C268.528 47.6381 268.948 47.7055 269.327 47.8402C269.713 47.975 270.044 48.1923 270.319 48.4924C270.601 48.7925 270.815 49.1905 270.962 49.6865C271.115 50.1764 271.192 50.7827 271.192 51.5053V57.7607H268.078V51.4961C268.078 51.0981 268.023 50.795 267.913 50.5867C267.802 50.3724 267.643 50.2254 267.435 50.1458C267.227 50.0662 266.973 50.0264 266.673 50.0264C266.354 50.0264 266.085 50.0877 265.864 50.2101C265.644 50.3326 265.466 50.5041 265.331 50.7245C265.203 50.9389 265.108 51.193 265.047 51.4869C264.992 51.7809 264.964 52.1024 264.964 52.4514ZM276.68 55.6389L278.637 47.8219H281.898L278.646 57.7607H276.717L276.68 55.6389ZM275.523 47.8219L277.452 55.6389L277.433 57.7607H275.495L272.253 47.8219H275.523ZM287.689 57.9445C286.881 57.9445 286.158 57.8189 285.521 57.5678C284.884 57.3106 284.345 56.9585 283.905 56.5115C283.47 56.0645 283.136 55.5501 282.903 54.9683C282.677 54.3865 282.563 53.7711 282.563 53.122V52.7729C282.563 52.0442 282.664 51.3706 282.867 50.7521C283.069 50.1275 283.369 49.5824 283.767 49.117C284.165 48.6516 284.664 48.2903 285.264 48.0331C285.864 47.7698 286.562 47.6381 287.358 47.6381C288.063 47.6381 288.693 47.7514 289.251 47.978C289.808 48.2046 290.279 48.5292 290.665 48.9517C291.057 49.3742 291.354 49.8856 291.556 50.4857C291.764 51.0858 291.868 51.7594 291.868 52.5065V53.765H283.748V51.8268H288.846V51.588C288.853 51.2573 288.794 50.9756 288.672 50.7429C288.556 50.5102 288.384 50.3326 288.157 50.2101C287.931 50.0877 287.655 50.0264 287.331 50.0264C286.994 50.0264 286.715 50.0999 286.495 50.2469C286.281 50.3938 286.112 50.5959 285.99 50.8531C285.873 51.1042 285.791 51.3951 285.742 51.7258C285.693 52.0564 285.668 52.4055 285.668 52.7729V53.122C285.668 53.4894 285.717 53.8232 285.815 54.1232C285.919 54.4233 286.066 54.6805 286.256 54.8948C286.452 55.103 286.685 55.2653 286.954 55.3817C287.23 55.498 287.542 55.5562 287.891 55.5562C288.314 55.5562 288.73 55.4766 289.14 55.3174C289.551 55.1581 289.903 54.8948 290.197 54.5274L291.602 56.1992C291.4 56.487 291.112 56.7656 290.739 57.0351C290.371 57.3045 289.93 57.525 289.416 57.6964C288.902 57.8618 288.326 57.9445 287.689 57.9445ZM298.523 54.9683C298.523 54.7968 298.465 54.6499 298.349 54.5274C298.239 54.3988 298.043 54.2824 297.761 54.1783C297.479 54.0681 297.084 53.9579 296.576 53.8477C296.092 53.7435 295.636 53.6058 295.207 53.4343C294.785 53.2628 294.414 53.0546 294.096 52.8097C293.777 52.5647 293.526 52.2738 293.343 51.937C293.165 51.6002 293.076 51.2144 293.076 50.7796C293.076 50.3571 293.165 49.9591 293.343 49.5855C293.526 49.2058 293.793 48.8721 294.142 48.5843C294.497 48.2903 294.929 48.0607 295.437 47.8953C295.945 47.7239 296.524 47.6381 297.173 47.6381C298.067 47.6381 298.839 47.7759 299.488 48.0515C300.137 48.3209 300.636 48.7006 300.985 49.1905C301.34 49.6743 301.518 50.2346 301.518 50.8715H298.422C298.422 50.6204 298.379 50.4061 298.294 50.2285C298.214 50.0509 298.082 49.9162 297.899 49.8243C297.715 49.7264 297.47 49.6774 297.164 49.6774C296.949 49.6774 296.754 49.7172 296.576 49.7968C296.404 49.8764 296.267 49.9866 296.163 50.1275C296.058 50.2683 296.006 50.4336 296.006 50.6235C296.006 50.7582 296.037 50.8807 296.098 50.9909C296.166 51.095 296.267 51.193 296.401 51.2849C296.536 51.3706 296.708 51.4502 296.916 51.5237C297.124 51.591 297.375 51.6523 297.669 51.7074C298.337 51.8299 298.961 52.0044 299.543 52.231C300.125 52.4576 300.596 52.7791 300.958 53.1955C301.325 53.6119 301.509 54.1722 301.509 54.8764C301.509 55.3174 301.408 55.7246 301.206 56.0981C301.003 56.4656 300.713 56.7901 300.333 57.0718C299.953 57.3474 299.497 57.5617 298.964 57.7148C298.431 57.8679 297.831 57.9445 297.164 57.9445C296.215 57.9445 295.412 57.7761 294.757 57.4392C294.102 57.0963 293.606 56.6676 293.269 56.1533C292.938 55.6327 292.773 55.1061 292.773 54.5733H295.657C295.67 54.8795 295.743 55.1306 295.878 55.3265C296.019 55.5225 296.205 55.6664 296.438 55.7583C296.671 55.8501 296.94 55.8961 297.246 55.8961C297.528 55.8961 297.761 55.8562 297.945 55.7766C298.134 55.697 298.278 55.5899 298.376 55.4551C298.474 55.3143 298.523 55.152 298.523 54.9683ZM308.384 47.8219V49.9713H302.395V47.8219H308.384ZM303.653 45.3509H306.749V54.5182C306.749 54.7815 306.779 54.9867 306.841 55.1336C306.902 55.2745 307.006 55.3755 307.153 55.4368C307.306 55.4919 307.508 55.5194 307.759 55.5194C307.937 55.5194 308.084 55.5164 308.2 55.5103C308.317 55.498 308.427 55.4827 308.531 55.4643V57.6781C308.268 57.7638 307.992 57.8281 307.704 57.871C307.416 57.92 307.11 57.9445 306.786 57.9445C306.124 57.9445 305.558 57.8404 305.086 57.6321C304.621 57.4239 304.266 57.0963 304.021 56.6493C303.776 56.2022 303.653 55.6205 303.653 54.904V45.3509ZM312.926 49.9254V57.7607H309.83V47.8219H312.733L312.926 49.9254ZM312.549 52.4514L311.842 52.4698C311.842 51.7717 311.925 51.1287 312.09 50.5408C312.255 49.9529 312.5 49.4416 312.825 49.0068C313.15 48.572 313.548 48.2352 314.019 47.9964C314.497 47.7576 315.048 47.6381 315.673 47.6381C316.107 47.6381 316.502 47.7055 316.858 47.8402C317.213 47.9688 317.519 48.174 317.776 48.4557C318.033 48.7312 318.229 49.0925 318.364 49.5396C318.505 49.9805 318.575 50.5102 318.575 51.1287V57.7607H315.48V51.5237C315.48 51.1011 315.431 50.7827 315.333 50.5684C315.241 50.354 315.106 50.2101 314.929 50.1366C314.751 50.0632 314.534 50.0264 314.276 50.0264C314.007 50.0264 313.765 50.0877 313.551 50.2101C313.336 50.3326 313.153 50.5041 313 50.7245C312.853 50.9389 312.739 51.193 312.66 51.4869C312.586 51.7809 312.549 52.1024 312.549 52.4514ZM318.226 52.4514L317.363 52.4698C317.363 51.7717 317.439 51.1287 317.592 50.5408C317.752 49.9529 317.987 49.4416 318.3 49.0068C318.618 48.572 319.013 48.2352 319.485 47.9964C319.956 47.7576 320.504 47.6381 321.129 47.6381C321.582 47.6381 321.998 47.7055 322.378 47.8402C322.758 47.975 323.085 48.1923 323.361 48.4924C323.637 48.7925 323.851 49.1905 324.004 49.6865C324.157 50.1764 324.234 50.7827 324.234 51.5053V57.7607H321.129V51.5053C321.129 51.095 321.08 50.7858 320.982 50.5776C320.89 50.3632 320.755 50.2193 320.578 50.1458C320.4 50.0662 320.189 50.0264 319.944 50.0264C319.65 50.0264 319.396 50.0877 319.181 50.2101C318.967 50.3326 318.786 50.5041 318.64 50.7245C318.499 50.9389 318.395 51.193 318.327 51.4869C318.26 51.7809 318.226 52.1024 318.226 52.4514ZM331.008 57.9445C330.199 57.9445 329.477 57.8189 328.84 57.5678C328.203 57.3106 327.664 56.9585 327.223 56.5115C326.789 56.0645 326.455 55.5501 326.222 54.9683C325.996 54.3865 325.882 53.7711 325.882 53.122V52.7729C325.882 52.0442 325.983 51.3706 326.185 50.7521C326.387 50.1275 326.688 49.5824 327.086 49.117C327.484 48.6516 327.983 48.2903 328.583 48.0331C329.183 47.7698 329.881 47.6381 330.677 47.6381C331.381 47.6381 332.012 47.7514 332.569 47.978C333.127 48.2046 333.598 48.5292 333.984 48.9517C334.376 49.3742 334.673 49.8856 334.875 50.4857C335.083 51.0858 335.187 51.7594 335.187 52.5065V53.765H327.067V51.8268H332.165V51.588C332.171 51.2573 332.113 50.9756 331.991 50.7429C331.874 50.5102 331.703 50.3326 331.476 50.2101C331.25 50.0877 330.974 50.0264 330.65 50.0264C330.313 50.0264 330.034 50.0999 329.814 50.2469C329.599 50.3938 329.431 50.5959 329.308 50.8531C329.192 51.1042 329.109 51.3951 329.06 51.7258C329.011 52.0564 328.987 52.4055 328.987 52.7729V53.122C328.987 53.4894 329.036 53.8232 329.134 54.1232C329.238 54.4233 329.385 54.6805 329.575 54.8948C329.771 55.103 330.004 55.2653 330.273 55.3817C330.549 55.498 330.861 55.5562 331.21 55.5562C331.632 55.5562 332.049 55.4766 332.459 55.3174C332.869 55.1581 333.222 54.8948 333.516 54.5274L334.921 56.1992C334.719 56.487 334.431 56.7656 334.057 57.0351C333.69 57.3045 333.249 57.525 332.735 57.6964C332.22 57.8618 331.645 57.9445 331.008 57.9445ZM339.674 49.9437V57.7607H336.579V47.8219H339.481L339.674 49.9437ZM339.307 52.4514L338.581 52.4698C338.581 51.7105 338.673 51.0338 338.857 50.4398C339.041 49.8396 339.301 49.3314 339.638 48.915C339.974 48.4985 340.375 48.1832 340.841 47.9688C341.312 47.7484 341.836 47.6381 342.412 47.6381C342.871 47.6381 343.29 47.7055 343.67 47.8402C344.056 47.975 344.387 48.1923 344.662 48.4924C344.944 48.7925 345.158 49.1905 345.305 49.6865C345.458 50.1764 345.535 50.7827 345.535 51.5053V57.7607H342.421V51.4961C342.421 51.0981 342.366 50.795 342.255 50.5867C342.145 50.3724 341.986 50.2254 341.778 50.1458C341.57 50.0662 341.315 50.0264 341.015 50.0264C340.697 50.0264 340.428 50.0877 340.207 50.2101C339.987 50.3326 339.809 50.5041 339.674 50.7245C339.546 50.9389 339.451 51.193 339.39 51.4869C339.334 51.7809 339.307 52.1024 339.307 52.4514ZM352.676 47.8219V49.9713H346.687V47.8219H352.676ZM347.946 45.3509H351.041V54.5182C351.041 54.7815 351.072 54.9867 351.133 55.1336C351.194 55.2745 351.299 55.3755 351.446 55.4368C351.599 55.4919 351.801 55.5194 352.052 55.5194C352.229 55.5194 352.376 55.5164 352.493 55.5103C352.609 55.498 352.719 55.4827 352.823 55.4643V57.6781C352.56 57.7638 352.285 57.8281 351.997 57.871C351.709 57.92 351.403 57.9445 351.078 57.9445C350.417 57.9445 349.85 57.8404 349.379 57.6321C348.913 57.4239 348.558 57.0963 348.313 56.6493C348.068 56.2022 347.946 55.6205 347.946 54.904V45.3509ZM359.304 54.9683C359.304 54.7968 359.246 54.6499 359.129 54.5274C359.019 54.3988 358.823 54.2824 358.541 54.1783C358.26 54.0681 357.865 53.9579 357.356 53.8477C356.873 53.7435 356.416 53.6058 355.988 53.4343C355.565 53.2628 355.195 53.0546 354.876 52.8097C354.558 52.5647 354.307 52.2738 354.123 51.937C353.945 51.6002 353.857 51.2144 353.857 50.7796C353.857 50.3571 353.945 49.9591 354.123 49.5855C354.307 49.2058 354.573 48.8721 354.922 48.5843C355.277 48.2903 355.709 48.0607 356.217 47.8953C356.726 47.7239 357.304 47.6381 357.953 47.6381C358.847 47.6381 359.619 47.7759 360.268 48.0515C360.917 48.3209 361.416 48.7006 361.765 49.1905C362.121 49.6743 362.298 50.2346 362.298 50.8715H359.203C359.203 50.6204 359.16 50.4061 359.074 50.2285C358.994 50.0509 358.863 49.9162 358.679 49.8243C358.495 49.7264 358.25 49.6774 357.944 49.6774C357.73 49.6774 357.534 49.7172 357.356 49.7968C357.185 49.8764 357.047 49.9866 356.943 50.1275C356.839 50.2683 356.787 50.4336 356.787 50.6235C356.787 50.7582 356.817 50.8807 356.879 50.9909C356.946 51.095 357.047 51.193 357.182 51.2849C357.317 51.3706 357.488 51.4502 357.696 51.5237C357.904 51.591 358.155 51.6523 358.449 51.7074C359.117 51.8299 359.742 52.0044 360.323 52.231C360.905 52.4576 361.377 52.7791 361.738 53.1955C362.105 53.6119 362.289 54.1722 362.289 54.8764C362.289 55.3174 362.188 55.7246 361.986 56.0981C361.784 56.4656 361.493 56.7901 361.113 57.0718C360.734 57.3474 360.277 57.5617 359.745 57.7148C359.212 57.8679 358.612 57.9445 357.944 57.9445C356.995 57.9445 356.193 57.7761 355.538 57.4392C354.882 57.0963 354.386 56.6676 354.05 56.1533C353.719 55.6327 353.553 55.1061 353.553 54.5733H356.438C356.45 54.8795 356.524 55.1306 356.658 55.3265C356.799 55.5225 356.986 55.6664 357.219 55.7583C357.451 55.8501 357.721 55.8961 358.027 55.8961C358.309 55.8961 358.541 55.8562 358.725 55.7766C358.915 55.697 359.059 55.5899 359.157 55.4551C359.255 55.3143 359.304 55.152 359.304 54.9683Z" fill="#92BBB9" fill-opacity="0.8"/>
<g filter="url(#filter2_d_1880_2241)">
<circle cx="99.3672" cy="110.338" r="29.0734" transform="rotate(-6 99.3672 110.338)" fill="#FF8181"/>
</g>
<g filter="url(#filter3_d_1880_2241)">
<circle cx="532.164" cy="357.576" r="23.5153" fill="#81FE9C"/>
</g>
<path d="M530.96 366.355L532.91 347.8L534.098 347.925L532.148 366.48L530.96 366.355ZM535.714 354.097C535.713 353.457 535.48 352.934 535.014 352.528C534.554 352.123 533.925 351.879 533.127 351.795C532.567 351.736 532.077 351.77 531.658 351.897C531.24 352.024 530.909 352.221 530.666 352.489C530.423 352.756 530.279 353.076 530.235 353.448C530.203 353.757 530.244 354.032 530.361 354.274C530.482 354.516 530.657 354.73 530.887 354.916C531.117 355.096 531.376 355.255 531.665 355.393C531.953 355.531 532.246 355.652 532.543 355.757L533.898 356.251C534.444 356.44 534.965 356.673 535.458 356.95C535.957 357.227 536.394 357.556 536.769 357.937C537.149 358.319 537.434 358.762 537.626 359.266C537.817 359.77 537.879 360.343 537.811 360.985C537.72 361.855 537.417 362.598 536.903 363.213C536.389 363.823 535.693 364.27 534.813 364.554C533.938 364.834 532.907 364.911 531.718 364.786C530.563 364.664 529.579 364.38 528.767 363.933C527.959 363.487 527.351 362.895 526.945 362.159C526.544 361.423 526.376 360.56 526.441 359.571L529.086 359.849C529.07 360.37 529.185 360.816 529.429 361.189C529.673 361.562 530.011 361.856 530.442 362.072C530.879 362.289 531.377 362.427 531.938 362.486C532.523 362.547 533.044 362.514 533.502 362.387C533.965 362.254 534.339 362.045 534.623 361.757C534.908 361.464 535.075 361.106 535.125 360.681C535.16 360.294 535.08 359.963 534.885 359.689C534.689 359.409 534.4 359.164 534.017 358.953C533.639 358.737 533.191 358.534 532.674 358.342L531.031 357.73C529.841 357.287 528.925 356.71 528.282 355.997C527.644 355.281 527.381 354.391 527.492 353.328C527.584 352.453 527.902 351.712 528.444 351.105C528.992 350.498 529.695 350.057 530.555 349.78C531.415 349.5 532.364 349.414 533.403 349.523C534.456 349.634 535.36 349.914 536.114 350.365C536.873 350.811 537.446 351.382 537.832 352.077C538.218 352.767 538.375 353.531 538.302 354.369L535.714 354.097Z" fill="white"/>
<g filter="url(#filter4_d_1880_2241)">
<circle cx="122.997" cy="249.405" r="20.5224" transform="rotate(-6 122.997 249.405)" fill="#46D9D1"/>
</g>
<g clip-path="url(#clip0_1880_2241)">
<path d="M128.735 249.405H124.705C123.76 249.405 122.994 248.64 122.994 247.695V243.654C122.997 242.857 122.628 242.104 121.997 241.616C121.4 241.143 120.616 240.974 119.876 241.16C114.848 242.408 111.784 247.495 113.032 252.523C113.912 256.065 116.766 258.776 120.349 259.471C125.243 260.408 130.019 257.365 131.238 252.533C131.424 251.792 131.256 251.007 130.782 250.408C130.289 249.778 129.535 249.409 128.735 249.405Z" fill="white"/>
<path d="M132.959 245.512C132.763 244.786 132.473 244.09 132.094 243.441C130.955 241.487 129.095 240.059 126.914 239.463C126.77 239.424 126.449 239.401 126.449 239.401C126.334 239.401 125.839 239.401 125.447 239.719C124.872 240.172 124.781 240.687 124.773 240.727C124.743 240.853 124.727 240.982 124.727 241.112V245.131C124.727 246.547 125.875 247.696 127.292 247.696H131.327C131.862 247.697 132.366 247.443 132.683 247.012C132.918 246.696 133.038 246.31 133.025 245.916C133.019 245.779 132.996 245.644 132.959 245.512Z" fill="white"/>
</g>
<path d="M111.74 110.366L100.601 118.75L87.9628 112.865C87.6887 112.737 87.375 112.724 87.091 112.827C86.8069 112.931 86.5756 113.143 86.448 113.417C86.3203 113.691 86.3069 114.005 86.4105 114.289C86.5141 114.573 86.7263 114.805 87.0004 114.932L100.26 121.105C100.447 121.192 100.655 121.227 100.861 121.205C101.066 121.184 101.262 121.107 101.428 120.982L113.114 112.188C113.355 112.006 113.515 111.735 113.557 111.436C113.6 111.136 113.521 110.833 113.339 110.591C113.157 110.349 112.887 110.19 112.588 110.148C112.288 110.105 111.984 110.184 111.743 110.366L111.74 110.366Z" fill="white"/>
<path d="M86.036 109.218L98.0707 114.821C98.628 115.081 99.2457 115.185 99.8574 115.121C100.469 115.056 101.052 114.827 101.543 114.456L112.149 106.473C112.307 106.355 112.43 106.198 112.509 106.017C112.587 105.837 112.617 105.639 112.597 105.444C112.576 105.248 112.506 105.061 112.391 104.901C112.277 104.741 112.123 104.613 111.945 104.53L99.9105 98.9264C99.3531 98.6666 98.7355 98.5633 98.1239 98.6275C97.5123 98.6918 96.9297 98.9213 96.4385 99.2914L85.8317 107.274C85.6747 107.393 85.5509 107.55 85.4725 107.73C85.3941 107.911 85.3637 108.108 85.3843 108.304C85.4049 108.499 85.4757 108.686 85.5899 108.847C85.7041 109.007 85.8578 109.135 86.036 109.218Z" fill="white"/>
<defs>
<filter id="filter0_d_1880_2241" x="0.715753" y="251.114" width="548.12" height="410.449" filterUnits="userSpaceOnUse" color-interpolation-filters="sRGB">
<feFlood flood-opacity="0" result="BackgroundImageFix"/>
<feColorMatrix in="SourceAlpha" type="matrix" values="0 0 0 0 0 0 0 0 0 0 0 0 0 0 0 0 0 0 127 0" result="hardAlpha"/>
<feOffset dx="12.8265" dy="17.102"/>
<feGaussianBlur stdDeviation="25.653"/>
<feComposite in2="hardAlpha" operator="out"/>
<feColorMatrix type="matrix" values="0 0 0 0 0 0 0 0 0 0 0 0 0 0 0 0 0 0 0.08 0"/>
<feBlend mode="normal" in2="BackgroundImageFix" result="effect1_dropShadow_1880_2241"/>
<feBlend mode="normal" in="SourceGraphic" in2="effect1_dropShadow_1880_2241" result="shape"/>
</filter>
<filter id="filter1_d_1880_2241" x="178.577" y="0.570593" width="431.825" height="371.114" filterUnits="userSpaceOnUse" color-interpolation-filters="sRGB">
<feFlood flood-opacity="0" result="BackgroundImageFix"/>
<feColorMatrix in="SourceAlpha" type="matrix" values="0 0 0 0 0 0 0 0 0 0 0 0 0 0 0 0 0 0 127 0" result="hardAlpha"/>
<feOffset dx="11.9714" dy="25.653"/>
<feGaussianBlur stdDeviation="25.653"/>
<feComposite in2="hardAlpha" operator="out"/>
<feColorMatrix type="matrix" values="0 0 0 0 0 0 0 0 0 0 0 0 0 0 0 0 0 0 0.12 0"/>
<feBlend mode="normal" in2="BackgroundImageFix" result="effect1_dropShadow_1880_2241"/>
<feBlend mode="normal" in="SourceGraphic" in2="effect1_dropShadow_1880_2241" result="shape"/>
</filter>
<filter id="filter2_d_1880_2241" x="53.189" y="72.7117" width="92.3564" height="92.3554" filterUnits="userSpaceOnUse" color-interpolation-filters="sRGB">
<feFlood flood-opacity="0" result="BackgroundImageFix"/>
<feColorMatrix in="SourceAlpha" type="matrix" values="0 0 0 0 0 0 0 0 0 0 0 0 0 0 0 0 0 0 127 0" result="hardAlpha"/>
<feOffset dy="8.55101"/>
<feGaussianBlur stdDeviation="8.55101"/>
<feComposite in2="hardAlpha" operator="out"/>
<feColorMatrix type="matrix" values="0 0 0 0 1 0 0 0 0 0.419608 0 0 0 0 0.419608 0 0 0 0.2 0"/>
<feBlend mode="normal" in2="BackgroundImageFix" result="effect1_dropShadow_1880_2241"/>
<feBlend mode="normal" in="SourceGraphic" in2="effect1_dropShadow_1880_2241" result="shape"/>
</filter>
<filter id="filter3_d_1880_2241" x="491.546" y="334.061" width="81.2353" height="81.2343" filterUnits="userSpaceOnUse" color-interpolation-filters="sRGB">
<feFlood flood-opacity="0" result="BackgroundImageFix"/>
<feColorMatrix in="SourceAlpha" type="matrix" values="0 0 0 0 0 0 0 0 0 0 0 0 0 0 0 0 0 0 127 0" result="hardAlpha"/>
<feOffset dy="17.102"/>
<feGaussianBlur stdDeviation="8.55101"/>
<feComposite in2="hardAlpha" operator="out"/>
<feColorMatrix type="matrix" values="0 0 0 0 0.246528 0 0 0 0 0.833333 0 0 0 0 0.370349 0 0 0 0.2 0"/>
<feBlend mode="normal" in2="BackgroundImageFix" result="effect1_dropShadow_1880_2241"/>
<feBlend mode="normal" in="SourceGraphic" in2="effect1_dropShadow_1880_2241" result="shape"/>
</filter>
<filter id="filter4_d_1880_2241" x="80.24" y="215.2" width="85.5141" height="85.5131" filterUnits="userSpaceOnUse" color-interpolation-filters="sRGB">
<feFlood flood-opacity="0" result="BackgroundImageFix"/>
<feColorMatrix in="SourceAlpha" type="matrix" values="0 0 0 0 0 0 0 0 0 0 0 0 0 0 0 0 0 0 127 0" result="hardAlpha"/>
<feOffset dy="8.55101"/>
<feGaussianBlur stdDeviation="11.1163"/>
<feComposite in2="hardAlpha" operator="out"/>
<feColorMatrix type="matrix" values="0 0 0 0 0 0 0 0 0 0.501961 0 0 0 0 0.501961 0 0 0 0.2 0"/>
<feBlend mode="normal" in2="BackgroundImageFix" result="effect1_dropShadow_1880_2241"/>
<feBlend mode="normal" in="SourceGraphic" in2="effect1_dropShadow_1880_2241" result="shape"/>
</filter>
<linearGradient id="paint0_linear_1880_2241" x1="193.114" y1="58.7178" x2="155.49" y2="564.083" gradientUnits="userSpaceOnUse">
<stop stop-color="#E9E9E9"/>
<stop offset="1" stop-color="#E9E9E9" stop-opacity="0"/>
</linearGradient>
<linearGradient id="paint1_linear_1880_2241" x1="222.186" y1="389.213" x2="245.274" y2="524.319" gradientUnits="userSpaceOnUse">
<stop stop-color="#47FFF5"/>
<stop offset="1" stop-color="#20B2AA" stop-opacity="0"/>
</linearGradient>
<clipPath id="clip0_1880_2241">
<rect width="20.5224" height="20.5224" fill="white" transform="translate(112.734 239.145)"/>
</clipPath>
</defs>
</svg>
