<svg width="35" height="34" viewBox="0 0 35 34" fill="none" xmlns="http://www.w3.org/2000/svg">
<g clip-path="url(#clip0_2015_113)">
<path d="M27.6498 0.257812H7.6409C3.89344 0.257812 0.859375 3.29188 0.859375 7.03934V27.0524C0.859375 30.7957 3.89344 33.8297 7.6409 33.8297H27.654C31.3972 33.8297 34.4355 30.7957 34.4355 27.0482V7.03934C34.4313 3.29188 31.3972 0.257812 27.6498 0.257812Z" fill="url(#paint0_linear_2015_113)"/>
<path d="M17.5019 7.97089L18.1817 6.79587C18.6013 6.06148 19.5372 5.81389 20.2715 6.23354C21.0059 6.65319 21.2535 7.589 20.8339 8.32339L14.2831 19.6623H19.021C20.5569 19.6623 21.4172 21.4668 20.7499 22.7174H6.85955C6.01186 22.7174 5.33203 22.0375 5.33203 21.1898C5.33203 20.3421 6.01186 19.6623 6.85955 19.6623H10.7539L15.7393 11.0217L14.1824 8.31919C13.7628 7.58481 14.0104 6.65738 14.7448 6.22934C15.4791 5.80969 16.4066 6.05729 16.8346 6.79167L17.5019 7.97089ZM11.61 24.291L10.1412 26.8383C9.72156 27.5727 8.78574 27.8203 8.05136 27.4006C7.31697 26.981 7.06938 26.0452 7.48903 25.3108L8.58012 23.4224C9.81388 23.0405 10.8168 23.3342 11.61 24.291ZM24.2582 19.6707H28.2323C29.08 19.6707 29.7598 20.3505 29.7598 21.1982C29.7598 22.0459 29.08 22.7257 28.2323 22.7257H26.0249L27.5147 25.3108C27.9343 26.0452 27.6867 26.9726 26.9524 27.4006C26.218 27.8203 25.2905 27.5727 24.8625 26.8383C22.353 22.4865 20.4688 19.2301 19.2182 17.0605C17.9383 14.8531 18.8531 12.6374 19.7554 11.8862C20.7583 13.6068 22.2565 16.2044 24.2582 19.6707Z" fill="white"/>
</g>
<defs>
<linearGradient id="paint0_linear_2015_113" x1="17.6474" y1="0.257812" x2="17.6474" y2="33.8297" gradientUnits="userSpaceOnUse">
<stop stop-color="#18BFFB"/>
<stop offset="1" stop-color="#2072F3"/>
</linearGradient>
<clipPath id="clip0_2015_113">
<rect width="33.5719" height="33.5719" fill="white" transform="translate(0.859375 0.257812)"/>
</clipPath>
</defs>
</svg>
