<svg width="35" height="35" viewBox="0 0 35 35" fill="none" xmlns="http://www.w3.org/2000/svg">
<path fill-rule="evenodd" clip-rule="evenodd" d="M26.211 0.71875C31.0632 0.71875 34.2106 3.86612 34.2106 8.71833V26.2911C34.2106 31.1433 31.0632 34.2907 26.211 34.2907H8.63825C3.78604 34.2907 0.638672 31.1433 0.638672 26.2911V8.71833C0.638672 3.86612 3.78604 0.71875 8.63825 0.71875H26.211Z" fill="#1877F2"/>
<path fill-rule="evenodd" clip-rule="evenodd" d="M18.2009 34.1236V21.1205H13.9766V16.4445H18.2009V13.0157C18.2009 13.0157 17.897 5.88867 24.0647 5.88867H29.0539V10.6529H25.9451C25.9451 10.6529 23.6572 10.5287 23.6323 12.89V16.4445H28.6617L27.9363 21.1205H23.5825V34.2898H18.2009V34.1236Z" fill="white"/>
</svg>
