<svg width="35" height="34" viewBox="0 0 35 34" fill="none" xmlns="http://www.w3.org/2000/svg">
<path fill-rule="evenodd" clip-rule="evenodd" d="M26.6466 0.256836C31.4988 0.256836 34.6461 3.4042 34.6461 8.25641V25.8292C34.6461 30.6814 31.4988 33.8288 26.6466 33.8288H9.07379C4.22159 33.8288 1.07422 30.6814 1.07422 25.8292V8.25641C1.07422 3.4042 4.22159 0.256836 9.07379 0.256836H26.6466Z" fill="white"/>
<path fill-rule="evenodd" clip-rule="evenodd" d="M26.6466 0.256836C31.4988 0.256836 34.6461 3.4042 34.6461 8.25641V25.8292C34.6461 30.6814 31.4988 33.8288 26.6466 33.8288H9.07379C4.22159 33.8288 1.07422 30.6814 1.07422 25.8292V8.25641C1.07422 3.4042 4.22159 0.256836 9.07379 0.256836H26.6466Z" fill="white" stroke="#A4A4A4" stroke-opacity="0.5" stroke-width="0.349708"/>
<path fill-rule="evenodd" clip-rule="evenodd" d="M14.6505 6.46473C11.9372 7.39478 9.62532 9.42888 8.33758 12.003C7.88839 12.8911 7.56495 13.8332 7.3673 14.8112C6.87617 17.2353 7.21757 19.8215 8.33159 22.0296C9.05633 23.4697 10.0985 24.7538 11.3563 25.7558C12.5482 26.7039 13.9317 27.4119 15.4051 27.802C17.2619 28.3 19.2384 28.288 21.1071 27.8619C22.7961 27.4719 24.3953 26.6619 25.6711 25.4858C27.0187 24.2438 27.983 22.6117 28.4921 20.8535C29.049 18.9394 29.1209 16.8933 28.7737 14.9252C25.2818 14.9252 21.7839 14.9252 18.2921 14.9252C18.2921 16.3773 18.2921 17.8294 18.2921 19.2815C20.3165 19.2815 22.3409 19.2815 24.3654 19.2815C24.1318 20.6735 23.3052 21.9456 22.1373 22.7316C21.4006 23.2297 20.5561 23.5477 19.6816 23.7037C18.8072 23.8537 17.8968 23.8717 17.0223 23.6977C16.1299 23.5177 15.2853 23.1457 14.5427 22.6237C13.3568 21.7896 12.4524 20.5715 11.9912 19.1974C11.518 17.7994 11.512 16.2453 11.9912 14.8532C12.3266 13.8692 12.8776 12.9631 13.6083 12.219C14.5067 11.295 15.6747 10.635 16.9385 10.3649C18.0165 10.1369 19.1545 10.1789 20.2087 10.4969C21.1071 10.767 21.9337 11.265 22.6105 11.913C23.2933 11.229 23.9761 10.5449 24.6589 9.86092C25.0182 9.4949 25.3956 9.14086 25.743 8.76284C24.7068 7.80279 23.4849 7.02874 22.1553 6.53671C19.7595 5.64868 17.0642 5.63066 14.6505 6.46473Z" fill="white"/>
<path fill-rule="evenodd" clip-rule="evenodd" d="M14.6488 6.46542C17.0566 5.63136 19.7578 5.64937 22.1536 6.53142C23.4833 7.02344 24.6991 7.79148 25.7413 8.75754C25.3939 9.13556 25.0166 9.48958 24.6572 9.8556C23.9744 10.5397 23.2916 11.2237 22.6088 11.9077C21.932 11.2597 21.1054 10.7677 20.207 10.4916C19.1529 10.1736 18.0149 10.1256 16.9368 10.3596C15.679 10.6297 14.5111 11.2897 13.6066 12.2137C12.876 12.9518 12.3249 13.8638 11.9895 14.8479C10.7737 13.8998 9.55779 12.9578 8.33594 12.0097C9.62367 9.42957 11.9356 7.39548 14.6488 6.46542Z" fill="#EA4335"/>
<path fill-rule="evenodd" clip-rule="evenodd" d="M7.37479 14.8062C7.57245 13.8342 7.89588 12.8861 8.3451 11.998C9.56094 12.9461 10.7768 13.8881 11.9987 14.8362C11.5195 16.2343 11.5195 17.7884 11.9987 19.1805C10.7828 20.1285 9.56696 21.0766 8.35109 22.0186C7.22506 19.8165 6.88366 17.2303 7.37479 14.8062Z" fill="#FBBC05"/>
<path fill-rule="evenodd" clip-rule="evenodd" d="M18.2911 14.9189C21.783 14.9189 25.2808 14.9189 28.7728 14.9189C29.12 16.8811 29.0422 18.9272 28.4912 20.8473C27.9821 22.6054 27.0178 24.2375 25.6701 25.4796C24.4902 24.5615 23.3103 23.6434 22.1304 22.7254C23.2983 21.9393 24.1249 20.6673 24.3585 19.2752C22.334 19.2752 20.3096 19.2752 18.2852 19.2752C18.2911 17.8231 18.2911 16.371 18.2911 14.9189Z" fill="#4285F4"/>
<path fill-rule="evenodd" clip-rule="evenodd" d="M8.33594 22.0227C9.5518 21.0807 10.7677 20.1326 11.9835 19.1846C12.4507 20.5587 13.3491 21.7767 14.535 22.6108C15.2777 23.1328 16.1282 23.5048 17.0146 23.6848C17.8891 23.8649 18.7935 23.8409 19.674 23.6908C20.5484 23.5348 21.393 23.2168 22.1296 22.7188C23.3096 23.6368 24.4895 24.5549 25.6694 25.4729C24.3937 26.655 22.7945 27.459 21.1054 27.8491C19.2367 28.2751 17.2602 28.2871 15.4035 27.7891C13.9301 27.3991 12.5465 26.697 11.3546 25.743C10.1028 24.7469 9.06067 23.4628 8.33594 22.0227Z" fill="#34A853"/>
</svg>
