<svg width="35" height="34" viewBox="0 0 35 34" fill="none" xmlns="http://www.w3.org/2000/svg">
<path fill-rule="evenodd" clip-rule="evenodd" d="M26.2169 0.380859C31.0691 0.380859 34.2165 3.52823 34.2165 8.38043V25.9532C34.2165 30.8054 31.0691 33.9528 26.2169 33.9528H8.64411C3.7919 33.9528 0.644531 30.8054 0.644531 25.9532V8.38043C0.644531 3.52823 3.7919 0.380859 8.64411 0.380859H26.2169Z" fill="black"/>
<path d="M19.1584 16.0663L25.9281 8.07422H24.3239L18.4457 15.0136L13.7509 8.07422H8.33594L15.4355 18.5678L8.33594 26.9487H9.94023L16.1477 19.6205L21.1058 26.9487H26.5207L19.158 16.0663H19.1584ZM16.9611 18.6603L16.2417 17.6153L10.5183 9.30076H12.9824L17.6013 16.0109L18.3206 17.0558L24.3246 25.778H21.8605L16.9611 18.6607V18.6603Z" fill="white"/>
</svg>
